ply
format ascii 1.0
element vertex 1276
property float x
property float y
property float z
element face 2548
property list uchar int vertex_indices
end_header
0.657701 -0.095000 0.317002
0.667701 -0.095000 0.317002
0.677701 -0.095000 0.317002
0.687701 -0.095000 0.317002
0.697701 -0.095000 0.317002
0.707701 -0.095000 0.317002
0.717701 -0.095000 0.317002
0.727701 -0.095000 0.317002
0.737701 -0.095000 0.317002
0.747701 -0.095000 0.317002
0.757701 -0.095000 0.317002
0.767701 -0.095000 0.317002
0.777701 -0.095000 0.317002
0.787701 -0.095000 0.317002
0.797701 -0.095000 0.317002
0.807701 -0.095000 0.317002
0.817701 -0.095000 0.317002
0.827701 -0.095000 0.317002
0.837701 -0.095000 0.317002
0.847701 -0.095000 0.317002
0.857701 -0.095000 0.317002
0.867701 -0.095000 0.317002
0.877701 -0.095000 0.317002
0.887701 -0.095000 0.317002
0.897701 -0.095000 0.317002
0.907701 -0.095000 0.317002
0.917701 -0.095000 0.317002
0.927701 -0.095000 0.317002
0.937701 -0.095000 0.317002
0.657701 -0.085000 0.317002
0.667701 -0.085000 0.317002
0.677701 -0.085000 0.317002
0.687701 -0.085000 0.317002
0.697701 -0.085000 0.317002
0.707701 -0.085000 0.317002
0.717701 -0.085000 0.317002
0.727701 -0.085000 0.317002
0.737701 -0.085000 0.317002
0.747701 -0.085000 0.317002
0.757701 -0.085000 0.317002
0.767701 -0.085000 0.317002
0.777701 -0.085000 0.317002
0.787701 -0.085000 0.317002
0.797701 -0.085000 0.317002
0.807701 -0.085000 0.317002
0.817701 -0.085000 0.317002
0.827701 -0.085000 0.317002
0.837701 -0.085000 0.317002
0.847701 -0.085000 0.317002
0.857701 -0.085000 0.317002
0.867701 -0.085000 0.317002
0.877701 -0.085000 0.317002
0.887701 -0.085000 0.317002
0.897701 -0.085000 0.317002
0.907701 -0.085000 0.317002
0.917701 -0.085000 0.317002
0.927701 -0.085000 0.317002
0.937701 -0.085000 0.317002
0.657701 -0.075000 0.317002
0.667701 -0.075000 0.317002
0.677701 -0.075000 0.317002
0.687701 -0.075000 0.317002
0.697701 -0.075000 0.317002
0.707701 -0.075000 0.317002
0.717701 -0.075000 0.317002
0.727701 -0.075000 0.317002
0.737701 -0.075000 0.317002
0.747701 -0.075000 0.317002
0.757701 -0.075000 0.317002
0.767701 -0.075000 0.317002
0.777701 -0.075000 0.317002
0.787701 -0.075000 0.317002
0.797701 -0.075000 0.317002
0.807701 -0.075000 0.317002
0.817701 -0.075000 0.317002
0.827701 -0.075000 0.317002
0.837701 -0.075000 0.317002
0.847701 -0.075000 0.317002
0.857701 -0.075000 0.317002
0.867701 -0.075000 0.317002
0.877701 -0.075000 0.317002
0.887701 -0.075000 0.317002
0.897701 -0.075000 0.317002
0.907701 -0.075000 0.317002
0.917701 -0.075000 0.317002
0.927701 -0.075000 0.317002
0.937701 -0.075000 0.317002
0.657701 -0.065000 0.317002
0.667701 -0.065000 0.317002
0.677701 -0.065000 0.317002
0.687701 -0.065000 0.317002
0.697701 -0.065000 0.317002
0.707701 -0.065000 0.317002
0.717701 -0.065000 0.317002
0.727701 -0.065000 0.317002
0.737701 -0.065000 0.317002
0.747701 -0.065000 0.317002
0.757701 -0.065000 0.317002
0.767701 -0.065000 0.317002
0.777701 -0.065000 0.317002
0.787701 -0.065000 0.317002
0.797701 -0.065000 0.317002
0.807701 -0.065000 0.317002
0.817701 -0.065000 0.317002
0.827701 -0.065000 0.317002
0.837701 -0.065000 0.317002
0.847701 -0.065000 0.317002
0.857701 -0.065000 0.317002
0.867701 -0.065000 0.317002
0.877701 -0.065000 0.317002
0.887701 -0.065000 0.317002
0.897701 -0.065000 0.317002
0.907701 -0.065000 0.317002
0.917701 -0.065000 0.317002
0.927701 -0.065000 0.317002
0.937701 -0.065000 0.317002
0.657701 -0.055000 0.317002
0.667701 -0.055000 0.317002
0.677701 -0.055000 0.317002
0.687701 -0.055000 0.317002
0.697701 -0.055000 0.317002
0.707701 -0.055000 0.317002
0.717701 -0.055000 0.317002
0.727701 -0.055000 0.317002
0.737701 -0.055000 0.317002
0.747701 -0.055000 0.317002
0.757701 -0.055000 0.317002
0.767701 -0.055000 0.317002
0.777701 -0.055000 0.317002
0.787701 -0.055000 0.317002
0.797701 -0.055000 0.317002
0.807701 -0.055000 0.317002
0.817701 -0.055000 0.317002
0.827701 -0.055000 0.317002
0.837701 -0.055000 0.317002
0.847701 -0.055000 0.317002
0.857701 -0.055000 0.317002
0.867701 -0.055000 0.317002
0.877701 -0.055000 0.317002
0.887701 -0.055000 0.317002
0.897701 -0.055000 0.317002
0.907701 -0.055000 0.317002
0.917701 -0.055000 0.317002
0.927701 -0.055000 0.317002
0.937701 -0.055000 0.317002
0.657701 -0.045000 0.317002
0.667701 -0.045000 0.317002
0.677701 -0.045000 0.317002
0.687701 -0.045000 0.317002
0.697701 -0.045000 0.317002
0.707701 -0.045000 0.317002
0.717701 -0.045000 0.317002
0.727701 -0.045000 0.317002
0.737701 -0.045000 0.317002
0.747701 -0.045000 0.317002
0.757701 -0.045000 0.317002
0.767701 -0.045000 0.317002
0.777701 -0.045000 0.317002
0.787701 -0.045000 0.317002
0.797701 -0.045000 0.317002
0.807701 -0.045000 0.317002
0.817701 -0.045000 0.317002
0.827701 -0.045000 0.317002
0.837701 -0.045000 0.317002
0.847701 -0.045000 0.317002
0.857701 -0.045000 0.317002
0.867701 -0.045000 0.317002
0.877701 -0.045000 0.317002
0.887701 -0.045000 0.317002
0.897701 -0.045000 0.317002
0.907701 -0.045000 0.317002
0.917701 -0.045000 0.317002
0.927701 -0.045000 0.317002
0.937701 -0.045000 0.317002
0.657701 -0.035000 0.317002
0.667701 -0.035000 0.317002
0.677701 -0.035000 0.317002
0.687701 -0.035000 0.317002
0.697701 -0.035000 0.317002
0.707701 -0.035000 0.317002
0.717701 -0.035000 0.317002
0.727701 -0.035000 0.317002
0.737701 -0.035000 0.317002
0.747701 -0.035000 0.317002
0.757701 -0.035000 0.317002
0.767701 -0.035000 0.317002
0.777701 -0.035000 0.317002
0.787701 -0.035000 0.317002
0.797701 -0.035000 0.317002
0.807701 -0.035000 0.317002
0.817701 -0.035000 0.317002
0.827701 -0.035000 0.317002
0.837701 -0.035000 0.317002
0.847701 -0.035000 0.317002
0.857701 -0.035000 0.317002
0.867701 -0.035000 0.317002
0.877701 -0.035000 0.317002
0.887701 -0.035000 0.317002
0.897701 -0.035000 0.317002
0.907701 -0.035000 0.317002
0.917701 -0.035000 0.317002
0.927701 -0.035000 0.317002
0.937701 -0.035000 0.317002
0.657701 -0.025000 0.317002
0.667701 -0.025000 0.317002
0.677701 -0.025000 0.317002
0.687701 -0.025000 0.317002
0.697701 -0.025000 0.317002
0.707701 -0.025000 0.317002
0.717701 -0.025000 0.317002
0.727701 -0.025000 0.317002
0.737701 -0.025000 0.317002
0.747701 -0.025000 0.317002
0.757701 -0.025000 0.317002
0.767701 -0.025000 0.317002
0.777701 -0.025000 0.317002
0.787701 -0.025000 0.317002
0.797701 -0.025000 0.317002
0.807701 -0.025000 0.317002
0.817701 -0.025000 0.317002
0.827701 -0.025000 0.317002
0.837701 -0.025000 0.317002
0.847701 -0.025000 0.317002
0.857701 -0.025000 0.317002
0.867701 -0.025000 0.317002
0.877701 -0.025000 0.317002
0.887701 -0.025000 0.317002
0.897701 -0.025000 0.317002
0.907701 -0.025000 0.317002
0.917701 -0.025000 0.317002
0.927701 -0.025000 0.317002
0.937701 -0.025000 0.317002
0.657701 -0.015000 0.317002
0.667701 -0.015000 0.317002
0.677701 -0.015000 0.317002
0.687701 -0.015000 0.317002
0.697701 -0.015000 0.317002
0.707701 -0.015000 0.317002
0.717701 -0.015000 0.317002
0.727701 -0.015000 0.317002
0.737701 -0.015000 0.317002
0.747701 -0.015000 0.317002
0.757701 -0.015000 0.317002
0.767701 -0.015000 0.317002
0.777701 -0.015000 0.317002
0.787701 -0.015000 0.317002
0.797701 -0.015000 0.317002
0.807701 -0.015000 0.317002
0.817701 -0.015000 0.317002
0.827701 -0.015000 0.317002
0.837701 -0.015000 0.317002
0.847701 -0.015000 0.317002
0.857701 -0.015000 0.317002
0.867701 -0.015000 0.317002
0.877701 -0.015000 0.317002
0.887701 -0.015000 0.317002
0.897701 -0.015000 0.317002
0.907701 -0.015000 0.317002
0.917701 -0.015000 0.317002
0.927701 -0.015000 0.317002
0.937701 -0.015000 0.317002
0.657701 -0.005000 0.317002
0.667701 -0.005000 0.317002
0.677701 -0.005000 0.317002
0.687701 -0.005000 0.317002
0.697701 -0.005000 0.317002
0.707701 -0.005000 0.317002
0.717701 -0.005000 0.317002
0.727701 -0.005000 0.317002
0.737701 -0.005000 0.317002
0.747701 -0.005000 0.317002
0.757701 -0.005000 0.317002
0.767701 -0.005000 0.317002
0.777701 -0.005000 0.317002
0.787701 -0.005000 0.317002
0.797701 -0.005000 0.317002
0.807701 -0.005000 0.317002
0.817701 -0.005000 0.317002
0.827701 -0.005000 0.317002
0.837701 -0.005000 0.317002
0.847701 -0.005000 0.317002
0.857701 -0.005000 0.317002
0.867701 -0.005000 0.317002
0.877701 -0.005000 0.317002
0.887701 -0.005000 0.317002
0.897701 -0.005000 0.317002
0.907701 -0.005000 0.317002
0.917701 -0.005000 0.317002
0.927701 -0.005000 0.317002
0.937701 -0.005000 0.317002
0.657701 0.005000 0.317002
0.667701 0.005000 0.317002
0.677701 0.005000 0.317002
0.687701 0.005000 0.317002
0.697701 0.005000 0.317002
0.707701 0.005000 0.317002
0.717701 0.005000 0.317002
0.727701 0.005000 0.317002
0.737701 0.005000 0.317002
0.747701 0.005000 0.317002
0.757701 0.005000 0.317002
0.767701 0.005000 0.317002
0.777701 0.005000 0.317002
0.787701 0.005000 0.317002
0.797701 0.005000 0.317002
0.807701 0.005000 0.317002
0.817701 0.005000 0.317002
0.827701 0.005000 0.317002
0.837701 0.005000 0.317002
0.847701 0.005000 0.317002
0.857701 0.005000 0.317002
0.867701 0.005000 0.317002
0.877701 0.005000 0.317002
0.887701 0.005000 0.317002
0.897701 0.005000 0.317002
0.907701 0.005000 0.317002
0.917701 0.005000 0.317002
0.927701 0.005000 0.317002
0.937701 0.005000 0.317002
0.657701 0.015000 0.317002
0.667701 0.015000 0.317002
0.677701 0.015000 0.317002
0.687701 0.015000 0.317002
0.697701 0.015000 0.317002
0.707701 0.015000 0.317002
0.717701 0.015000 0.317002
0.727701 0.015000 0.317002
0.737701 0.015000 0.317002
0.747701 0.015000 0.317002
0.757701 0.015000 0.317002
0.767701 0.015000 0.317002
0.777701 0.015000 0.317002
0.787701 0.015000 0.317002
0.797701 0.015000 0.317002
0.807701 0.015000 0.317002
0.817701 0.015000 0.317002
0.827701 0.015000 0.317002
0.837701 0.015000 0.317002
0.847701 0.015000 0.317002
0.857701 0.015000 0.317002
0.867701 0.015000 0.317002
0.877701 0.015000 0.317002
0.887701 0.015000 0.317002
0.897701 0.015000 0.317002
0.907701 0.015000 0.317002
0.917701 0.015000 0.317002
0.927701 0.015000 0.317002
0.937701 0.015000 0.317002
0.657701 0.025000 0.317002
0.667701 0.025000 0.317002
0.677701 0.025000 0.317002
0.687701 0.025000 0.317002
0.697701 0.025000 0.317002
0.707701 0.025000 0.317002
0.717701 0.025000 0.317002
0.727701 0.025000 0.317002
0.737701 0.025000 0.317002
0.747701 0.025000 0.317002
0.757701 0.025000 0.317002
0.767701 0.025000 0.317002
0.777701 0.025000 0.317002
0.787701 0.025000 0.317002
0.797701 0.025000 0.317002
0.807701 0.025000 0.317002
0.817701 0.025000 0.317002
0.827701 0.025000 0.317002
0.837701 0.025000 0.317002
0.847701 0.025000 0.317002
0.857701 0.025000 0.317002
0.867701 0.025000 0.317002
0.877701 0.025000 0.317002
0.887701 0.025000 0.317002
0.897701 0.025000 0.317002
0.907701 0.025000 0.317002
0.917701 0.025000 0.317002
0.927701 0.025000 0.317002
0.937701 0.025000 0.317002
0.657701 0.035000 0.317002
0.667701 0.035000 0.317002
0.677701 0.035000 0.317002
0.687701 0.035000 0.317002
0.697701 0.035000 0.317002
0.707701 0.035000 0.317002
0.717701 0.035000 0.317002
0.727701 0.035000 0.317002
0.737701 0.035000 0.317002
0.747701 0.035000 0.317002
0.757701 0.035000 0.317002
0.767701 0.035000 0.317002
0.777701 0.035000 0.317002
0.787701 0.035000 0.317002
0.797701 0.035000 0.317002
0.807701 0.035000 0.317002
0.817701 0.035000 0.317002
0.827701 0.035000 0.317002
0.837701 0.035000 0.317002
0.847701 0.035000 0.317002
0.857701 0.035000 0.317002
0.867701 0.035000 0.317002
0.877701 0.035000 0.317002
0.887701 0.035000 0.317002
0.897701 0.035000 0.317002
0.907701 0.035000 0.317002
0.917701 0.035000 0.317002
0.927701 0.035000 0.317002
0.937701 0.035000 0.317002
0.657701 0.045000 0.317002
0.667701 0.045000 0.317002
0.677701 0.045000 0.317002
0.687701 0.045000 0.317002
0.697701 0.045000 0.317002
0.707701 0.045000 0.317002
0.717701 0.045000 0.317002
0.727701 0.045000 0.317002
0.737701 0.045000 0.317002
0.747701 0.045000 0.317002
0.757701 0.045000 0.317002
0.767701 0.045000 0.317002
0.777701 0.045000 0.317002
0.787701 0.045000 0.317002
0.797701 0.045000 0.317002
0.807701 0.045000 0.317002
0.817701 0.045000 0.317002
0.827701 0.045000 0.317002
0.837701 0.045000 0.317002
0.847701 0.045000 0.317002
0.857701 0.045000 0.317002
0.867701 0.045000 0.317002
0.877701 0.045000 0.317002
0.887701 0.045000 0.317002
0.897701 0.045000 0.317002
0.907701 0.045000 0.317002
0.917701 0.045000 0.317002
0.927701 0.045000 0.317002
0.937701 0.045000 0.317002
0.657701 0.055000 0.317002
0.667701 0.055000 0.317002
0.677701 0.055000 0.317002
0.687701 0.055000 0.317002
0.697701 0.055000 0.317002
0.707701 0.055000 0.317002
0.717701 0.055000 0.317002
0.727701 0.055000 0.317002
0.737701 0.055000 0.317002
0.747701 0.055000 0.317002
0.757701 0.055000 0.317002
0.767701 0.055000 0.317002
0.777701 0.055000 0.317002
0.787701 0.055000 0.317002
0.797701 0.055000 0.317002
0.807701 0.055000 0.317002
0.817701 0.055000 0.317002
0.827701 0.055000 0.317002
0.837701 0.055000 0.317002
0.847701 0.055000 0.317002
0.857701 0.055000 0.317002
0.867701 0.055000 0.317002
0.877701 0.055000 0.317002
0.887701 0.055000 0.317002
0.897701 0.055000 0.317002
0.907701 0.055000 0.317002
0.917701 0.055000 0.317002
0.927701 0.055000 0.317002
0.937701 0.055000 0.317002
0.657701 0.065000 0.317002
0.667701 0.065000 0.317002
0.677701 0.065000 0.317002
0.687701 0.065000 0.317002
0.697701 0.065000 0.317002
0.707701 0.065000 0.317002
0.717701 0.065000 0.317002
0.727701 0.065000 0.317002
0.737701 0.065000 0.317002
0.747701 0.065000 0.317002
0.757701 0.065000 0.317002
0.767701 0.065000 0.317002
0.777701 0.065000 0.317002
0.787701 0.065000 0.317002
0.797701 0.065000 0.317002
0.807701 0.065000 0.317002
0.817701 0.065000 0.317002
0.827701 0.065000 0.317002
0.837701 0.065000 0.317002
0.847701 0.065000 0.317002
0.857701 0.065000 0.317002
0.867701 0.065000 0.317002
0.877701 0.065000 0.317002
0.887701 0.065000 0.317002
0.897701 0.065000 0.317002
0.907701 0.065000 0.317002
0.917701 0.065000 0.317002
0.927701 0.065000 0.317002
0.937701 0.065000 0.317002
0.657701 0.075000 0.317002
0.667701 0.075000 0.317002
0.677701 0.075000 0.317002
0.687701 0.075000 0.317002
0.697701 0.075000 0.317002
0.707701 0.075000 0.317002
0.717701 0.075000 0.317002
0.727701 0.075000 0.317002
0.737701 0.075000 0.317002
0.747701 0.075000 0.317002
0.757701 0.075000 0.317002
0.767701 0.075000 0.317002
0.777701 0.075000 0.317002
0.787701 0.075000 0.317002
0.797701 0.075000 0.317002
0.807701 0.075000 0.317002
0.817701 0.075000 0.317002
0.827701 0.075000 0.317002
0.837701 0.075000 0.317002
0.847701 0.075000 0.317002
0.857701 0.075000 0.317002
0.867701 0.075000 0.317002
0.877701 0.075000 0.317002
0.887701 0.075000 0.317002
0.897701 0.075000 0.317002
0.907701 0.075000 0.317002
0.917701 0.075000 0.317002
0.927701 0.075000 0.317002
0.937701 0.075000 0.317002
0.657701 0.085000 0.317002
0.667701 0.085000 0.317002
0.677701 0.085000 0.317002
0.687701 0.085000 0.317002
0.697701 0.085000 0.317002
0.707701 0.085000 0.317002
0.717701 0.085000 0.317002
0.727701 0.085000 0.317002
0.737701 0.085000 0.317002
0.747701 0.085000 0.317002
0.757701 0.085000 0.317002
0.767701 0.085000 0.317002
0.777701 0.085000 0.317002
0.787701 0.085000 0.317002
0.797701 0.085000 0.317002
0.807701 0.085000 0.317002
0.817701 0.085000 0.317002
0.827701 0.085000 0.317002
0.837701 0.085000 0.317002
0.847701 0.085000 0.317002
0.857701 0.085000 0.317002
0.867701 0.085000 0.317002
0.877701 0.085000 0.317002
0.887701 0.085000 0.317002
0.897701 0.085000 0.317002
0.907701 0.085000 0.317002
0.917701 0.085000 0.317002
0.927701 0.085000 0.317002
0.937701 0.085000 0.317002
0.657701 0.095000 0.317002
0.667701 0.095000 0.317002
0.677701 0.095000 0.317002
0.687701 0.095000 0.317002
0.697701 0.095000 0.317002
0.707701 0.095000 0.317002
0.717701 0.095000 0.317002
0.727701 0.095000 0.317002
0.737701 0.095000 0.317002
0.747701 0.095000 0.317002
0.757701 0.095000 0.317002
0.767701 0.095000 0.317002
0.777701 0.095000 0.317002
0.787701 0.095000 0.317002
0.797701 0.095000 0.317002
0.807701 0.095000 0.317002
0.817701 0.095000 0.317002
0.827701 0.095000 0.317002
0.837701 0.095000 0.317002
0.847701 0.095000 0.317002
0.857701 0.095000 0.317002
0.867701 0.095000 0.317002
0.877701 0.095000 0.317002
0.887701 0.095000 0.317002
0.897701 0.095000 0.317002
0.907701 0.095000 0.317002
0.917701 0.095000 0.317002
0.927701 0.095000 0.317002
0.937701 0.095000 0.317002
0.657701 0.105000 0.317002
0.667701 0.105000 0.317002
0.677701 0.105000 0.317002
0.687701 0.105000 0.317002
0.697701 0.105000 0.317002
0.707701 0.105000 0.317002
0.717701 0.105000 0.317002
0.727701 0.105000 0.317002
0.737701 0.105000 0.317002
0.747701 0.105000 0.317002
0.757701 0.105000 0.317002
0.767701 0.105000 0.317002
0.777701 0.105000 0.317002
0.787701 0.105000 0.317002
0.797701 0.105000 0.317002
0.807701 0.105000 0.317002
0.817701 0.105000 0.317002
0.827701 0.105000 0.317002
0.837701 0.105000 0.317002
0.847701 0.105000 0.317002
0.857701 0.105000 0.317002
0.867701 0.105000 0.317002
0.877701 0.105000 0.317002
0.887701 0.105000 0.317002
0.897701 0.105000 0.317002
0.907701 0.105000 0.317002
0.917701 0.105000 0.317002
0.927701 0.105000 0.317002
0.937701 0.105000 0.317002
0.657701 0.115000 0.317002
0.667701 0.115000 0.317002
0.677701 0.115000 0.317002
0.687701 0.115000 0.317002
0.697701 0.115000 0.317002
0.707701 0.115000 0.317002
0.717701 0.115000 0.317002
0.727701 0.115000 0.317002
0.737701 0.115000 0.317002
0.747701 0.115000 0.317002
0.757701 0.115000 0.317002
0.767701 0.115000 0.317002
0.777701 0.115000 0.317002
0.787701 0.115000 0.317002
0.797701 0.115000 0.317002
0.807701 0.115000 0.317002
0.817701 0.115000 0.317002
0.827701 0.115000 0.317002
0.837701 0.115000 0.317002
0.847701 0.115000 0.317002
0.857701 0.115000 0.317002
0.867701 0.115000 0.317002
0.877701 0.115000 0.317002
0.887701 0.115000 0.317002
0.897701 0.115000 0.317002
0.907701 0.115000 0.317002
0.917701 0.115000 0.317002
0.927701 0.115000 0.317002
0.937701 0.115000 0.317002
0.657701 -0.095000 0.302002
0.667701 -0.095000 0.302002
0.677701 -0.095000 0.302002
0.687701 -0.095000 0.302002
0.697701 -0.095000 0.302002
0.707701 -0.095000 0.302002
0.717701 -0.095000 0.302002
0.727701 -0.095000 0.302002
0.737701 -0.095000 0.302002
0.747701 -0.095000 0.302002
0.757701 -0.095000 0.302002
0.767701 -0.095000 0.302002
0.777701 -0.095000 0.302002
0.787701 -0.095000 0.302002
0.797701 -0.095000 0.302002
0.807701 -0.095000 0.302002
0.817701 -0.095000 0.302002
0.827701 -0.095000 0.302002
0.837701 -0.095000 0.302002
0.847701 -0.095000 0.302002
0.857701 -0.095000 0.302002
0.867701 -0.095000 0.302002
0.877701 -0.095000 0.302002
0.887701 -0.095000 0.302002
0.897701 -0.095000 0.302002
0.907701 -0.095000 0.302002
0.917701 -0.095000 0.302002
0.927701 -0.095000 0.302002
0.937701 -0.095000 0.302002
0.657701 -0.085000 0.302002
0.667701 -0.085000 0.302002
0.677701 -0.085000 0.302002
0.687701 -0.085000 0.302002
0.697701 -0.085000 0.302002
0.707701 -0.085000 0.302002
0.717701 -0.085000 0.302002
0.727701 -0.085000 0.302002
0.737701 -0.085000 0.302002
0.747701 -0.085000 0.302002
0.757701 -0.085000 0.302002
0.767701 -0.085000 0.302002
0.777701 -0.085000 0.302002
0.787701 -0.085000 0.302002
0.797701 -0.085000 0.302002
0.807701 -0.085000 0.302002
0.817701 -0.085000 0.302002
0.827701 -0.085000 0.302002
0.837701 -0.085000 0.302002
0.847701 -0.085000 0.302002
0.857701 -0.085000 0.302002
0.867701 -0.085000 0.302002
0.877701 -0.085000 0.302002
0.887701 -0.085000 0.302002
0.897701 -0.085000 0.302002
0.907701 -0.085000 0.302002
0.917701 -0.085000 0.302002
0.927701 -0.085000 0.302002
0.937701 -0.085000 0.302002
0.657701 -0.075000 0.302002
0.667701 -0.075000 0.302002
0.677701 -0.075000 0.302002
0.687701 -0.075000 0.302002
0.697701 -0.075000 0.302002
0.707701 -0.075000 0.302002
0.717701 -0.075000 0.302002
0.727701 -0.075000 0.302002
0.737701 -0.075000 0.302002
0.747701 -0.075000 0.302002
0.757701 -0.075000 0.302002
0.767701 -0.075000 0.302002
0.777701 -0.075000 0.302002
0.787701 -0.075000 0.302002
0.797701 -0.075000 0.302002
0.807701 -0.075000 0.302002
0.817701 -0.075000 0.302002
0.827701 -0.075000 0.302002
0.837701 -0.075000 0.302002
0.847701 -0.075000 0.302002
0.857701 -0.075000 0.302002
0.867701 -0.075000 0.302002
0.877701 -0.075000 0.302002
0.887701 -0.075000 0.302002
0.897701 -0.075000 0.302002
0.907701 -0.075000 0.302002
0.917701 -0.075000 0.302002
0.927701 -0.075000 0.302002
0.937701 -0.075000 0.302002
0.657701 -0.065000 0.302002
0.667701 -0.065000 0.302002
0.677701 -0.065000 0.302002
0.687701 -0.065000 0.302002
0.697701 -0.065000 0.302002
0.707701 -0.065000 0.302002
0.717701 -0.065000 0.302002
0.727701 -0.065000 0.302002
0.737701 -0.065000 0.302002
0.747701 -0.065000 0.302002
0.757701 -0.065000 0.302002
0.767701 -0.065000 0.302002
0.777701 -0.065000 0.302002
0.787701 -0.065000 0.302002
0.797701 -0.065000 0.302002
0.807701 -0.065000 0.302002
0.817701 -0.065000 0.302002
0.827701 -0.065000 0.302002
0.837701 -0.065000 0.302002
0.847701 -0.065000 0.302002
0.857701 -0.065000 0.302002
0.867701 -0.065000 0.302002
0.877701 -0.065000 0.302002
0.887701 -0.065000 0.302002
0.897701 -0.065000 0.302002
0.907701 -0.065000 0.302002
0.917701 -0.065000 0.302002
0.927701 -0.065000 0.302002
0.937701 -0.065000 0.302002
0.657701 -0.055000 0.302002
0.667701 -0.055000 0.302002
0.677701 -0.055000 0.302002
0.687701 -0.055000 0.302002
0.697701 -0.055000 0.302002
0.707701 -0.055000 0.302002
0.717701 -0.055000 0.302002
0.727701 -0.055000 0.302002
0.737701 -0.055000 0.302002
0.747701 -0.055000 0.302002
0.757701 -0.055000 0.302002
0.767701 -0.055000 0.302002
0.777701 -0.055000 0.302002
0.787701 -0.055000 0.302002
0.797701 -0.055000 0.302002
0.807701 -0.055000 0.302002
0.817701 -0.055000 0.302002
0.827701 -0.055000 0.302002
0.837701 -0.055000 0.302002
0.847701 -0.055000 0.302002
0.857701 -0.055000 0.302002
0.867701 -0.055000 0.302002
0.877701 -0.055000 0.302002
0.887701 -0.055000 0.302002
0.897701 -0.055000 0.302002
0.907701 -0.055000 0.302002
0.917701 -0.055000 0.302002
0.927701 -0.055000 0.302002
0.937701 -0.055000 0.302002
0.657701 -0.045000 0.302002
0.667701 -0.045000 0.302002
0.677701 -0.045000 0.302002
0.687701 -0.045000 0.302002
0.697701 -0.045000 0.302002
0.707701 -0.045000 0.302002
0.717701 -0.045000 0.302002
0.727701 -0.045000 0.302002
0.737701 -0.045000 0.302002
0.747701 -0.045000 0.302002
0.757701 -0.045000 0.302002
0.767701 -0.045000 0.302002
0.777701 -0.045000 0.302002
0.787701 -0.045000 0.302002
0.797701 -0.045000 0.302002
0.807701 -0.045000 0.302002
0.817701 -0.045000 0.302002
0.827701 -0.045000 0.302002
0.837701 -0.045000 0.302002
0.847701 -0.045000 0.302002
0.857701 -0.045000 0.302002
0.867701 -0.045000 0.302002
0.877701 -0.045000 0.302002
0.887701 -0.045000 0.302002
0.897701 -0.045000 0.302002
0.907701 -0.045000 0.302002
0.917701 -0.045000 0.302002
0.927701 -0.045000 0.302002
0.937701 -0.045000 0.302002
0.657701 -0.035000 0.302002
0.667701 -0.035000 0.302002
0.677701 -0.035000 0.302002
0.687701 -0.035000 0.302002
0.697701 -0.035000 0.302002
0.707701 -0.035000 0.302002
0.717701 -0.035000 0.302002
0.727701 -0.035000 0.302002
0.737701 -0.035000 0.302002
0.747701 -0.035000 0.302002
0.757701 -0.035000 0.302002
0.767701 -0.035000 0.302002
0.777701 -0.035000 0.302002
0.787701 -0.035000 0.302002
0.797701 -0.035000 0.302002
0.807701 -0.035000 0.302002
0.817701 -0.035000 0.302002
0.827701 -0.035000 0.302002
0.837701 -0.035000 0.302002
0.847701 -0.035000 0.302002
0.857701 -0.035000 0.302002
0.867701 -0.035000 0.302002
0.877701 -0.035000 0.302002
0.887701 -0.035000 0.302002
0.897701 -0.035000 0.302002
0.907701 -0.035000 0.302002
0.917701 -0.035000 0.302002
0.927701 -0.035000 0.302002
0.937701 -0.035000 0.302002
0.657701 -0.025000 0.302002
0.667701 -0.025000 0.302002
0.677701 -0.025000 0.302002
0.687701 -0.025000 0.302002
0.697701 -0.025000 0.302002
0.707701 -0.025000 0.302002
0.717701 -0.025000 0.302002
0.727701 -0.025000 0.302002
0.737701 -0.025000 0.302002
0.747701 -0.025000 0.302002
0.757701 -0.025000 0.302002
0.767701 -0.025000 0.302002
0.777701 -0.025000 0.302002
0.787701 -0.025000 0.302002
0.797701 -0.025000 0.302002
0.807701 -0.025000 0.302002
0.817701 -0.025000 0.302002
0.827701 -0.025000 0.302002
0.837701 -0.025000 0.302002
0.847701 -0.025000 0.302002
0.857701 -0.025000 0.302002
0.867701 -0.025000 0.302002
0.877701 -0.025000 0.302002
0.887701 -0.025000 0.302002
0.897701 -0.025000 0.302002
0.907701 -0.025000 0.302002
0.917701 -0.025000 0.302002
0.927701 -0.025000 0.302002
0.937701 -0.025000 0.302002
0.657701 -0.015000 0.302002
0.667701 -0.015000 0.302002
0.677701 -0.015000 0.302002
0.687701 -0.015000 0.302002
0.697701 -0.015000 0.302002
0.707701 -0.015000 0.302002
0.717701 -0.015000 0.302002
0.727701 -0.015000 0.302002
0.737701 -0.015000 0.302002
0.747701 -0.015000 0.302002
0.757701 -0.015000 0.302002
0.767701 -0.015000 0.302002
0.777701 -0.015000 0.302002
0.787701 -0.015000 0.302002
0.797701 -0.015000 0.302002
0.807701 -0.015000 0.302002
0.817701 -0.015000 0.302002
0.827701 -0.015000 0.302002
0.837701 -0.015000 0.302002
0.847701 -0.015000 0.302002
0.857701 -0.015000 0.302002
0.867701 -0.015000 0.302002
0.877701 -0.015000 0.302002
0.887701 -0.015000 0.302002
0.897701 -0.015000 0.302002
0.907701 -0.015000 0.302002
0.917701 -0.015000 0.302002
0.927701 -0.015000 0.302002
0.937701 -0.015000 0.302002
0.657701 -0.005000 0.302002
0.667701 -0.005000 0.302002
0.677701 -0.005000 0.302002
0.687701 -0.005000 0.302002
0.697701 -0.005000 0.302002
0.707701 -0.005000 0.302002
0.717701 -0.005000 0.302002
0.727701 -0.005000 0.302002
0.737701 -0.005000 0.302002
0.747701 -0.005000 0.302002
0.757701 -0.005000 0.302002
0.767701 -0.005000 0.302002
0.777701 -0.005000 0.302002
0.787701 -0.005000 0.302002
0.797701 -0.005000 0.302002
0.807701 -0.005000 0.302002
0.817701 -0.005000 0.302002
0.827701 -0.005000 0.302002
0.837701 -0.005000 0.302002
0.847701 -0.005000 0.302002
0.857701 -0.005000 0.302002
0.867701 -0.005000 0.302002
0.877701 -0.005000 0.302002
0.887701 -0.005000 0.302002
0.897701 -0.005000 0.302002
0.907701 -0.005000 0.302002
0.917701 -0.005000 0.302002
0.927701 -0.005000 0.302002
0.937701 -0.005000 0.302002
0.657701 0.005000 0.302002
0.667701 0.005000 0.302002
0.677701 0.005000 0.302002
0.687701 0.005000 0.302002
0.697701 0.005000 0.302002
0.707701 0.005000 0.302002
0.717701 0.005000 0.302002
0.727701 0.005000 0.302002
0.737701 0.005000 0.302002
0.747701 0.005000 0.302002
0.757701 0.005000 0.302002
0.767701 0.005000 0.302002
0.777701 0.005000 0.302002
0.787701 0.005000 0.302002
0.797701 0.005000 0.302002
0.807701 0.005000 0.302002
0.817701 0.005000 0.302002
0.827701 0.005000 0.302002
0.837701 0.005000 0.302002
0.847701 0.005000 0.302002
0.857701 0.005000 0.302002
0.867701 0.005000 0.302002
0.877701 0.005000 0.302002
0.887701 0.005000 0.302002
0.897701 0.005000 0.302002
0.907701 0.005000 0.302002
0.917701 0.005000 0.302002
0.927701 0.005000 0.302002
0.937701 0.005000 0.302002
0.657701 0.015000 0.302002
0.667701 0.015000 0.302002
0.677701 0.015000 0.302002
0.687701 0.015000 0.302002
0.697701 0.015000 0.302002
0.707701 0.015000 0.302002
0.717701 0.015000 0.302002
0.727701 0.015000 0.302002
0.737701 0.015000 0.302002
0.747701 0.015000 0.302002
0.757701 0.015000 0.302002
0.767701 0.015000 0.302002
0.777701 0.015000 0.302002
0.787701 0.015000 0.302002
0.797701 0.015000 0.302002
0.807701 0.015000 0.302002
0.817701 0.015000 0.302002
0.827701 0.015000 0.302002
0.837701 0.015000 0.302002
0.847701 0.015000 0.302002
0.857701 0.015000 0.302002
0.867701 0.015000 0.302002
0.877701 0.015000 0.302002
0.887701 0.015000 0.302002
0.897701 0.015000 0.302002
0.907701 0.015000 0.302002
0.917701 0.015000 0.302002
0.927701 0.015000 0.302002
0.937701 0.015000 0.302002
0.657701 0.025000 0.302002
0.667701 0.025000 0.302002
0.677701 0.025000 0.302002
0.687701 0.025000 0.302002
0.697701 0.025000 0.302002
0.707701 0.025000 0.302002
0.717701 0.025000 0.302002
0.727701 0.025000 0.302002
0.737701 0.025000 0.302002
0.747701 0.025000 0.302002
0.757701 0.025000 0.302002
0.767701 0.025000 0.302002
0.777701 0.025000 0.302002
0.787701 0.025000 0.302002
0.797701 0.025000 0.302002
0.807701 0.025000 0.302002
0.817701 0.025000 0.302002
0.827701 0.025000 0.302002
0.837701 0.025000 0.302002
0.847701 0.025000 0.302002
0.857701 0.025000 0.302002
0.867701 0.025000 0.302002
0.877701 0.025000 0.302002
0.887701 0.025000 0.302002
0.897701 0.025000 0.302002
0.907701 0.025000 0.302002
0.917701 0.025000 0.302002
0.927701 0.025000 0.302002
0.937701 0.025000 0.302002
0.657701 0.035000 0.302002
0.667701 0.035000 0.302002
0.677701 0.035000 0.302002
0.687701 0.035000 0.302002
0.697701 0.035000 0.302002
0.707701 0.035000 0.302002
0.717701 0.035000 0.302002
0.727701 0.035000 0.302002
0.737701 0.035000 0.302002
0.747701 0.035000 0.302002
0.757701 0.035000 0.302002
0.767701 0.035000 0.302002
0.777701 0.035000 0.302002
0.787701 0.035000 0.302002
0.797701 0.035000 0.302002
0.807701 0.035000 0.302002
0.817701 0.035000 0.302002
0.827701 0.035000 0.302002
0.837701 0.035000 0.302002
0.847701 0.035000 0.302002
0.857701 0.035000 0.302002
0.867701 0.035000 0.302002
0.877701 0.035000 0.302002
0.887701 0.035000 0.302002
0.897701 0.035000 0.302002
0.907701 0.035000 0.302002
0.917701 0.035000 0.302002
0.927701 0.035000 0.302002
0.937701 0.035000 0.302002
0.657701 0.045000 0.302002
0.667701 0.045000 0.302002
0.677701 0.045000 0.302002
0.687701 0.045000 0.302002
0.697701 0.045000 0.302002
0.707701 0.045000 0.302002
0.717701 0.045000 0.302002
0.727701 0.045000 0.302002
0.737701 0.045000 0.302002
0.747701 0.045000 0.302002
0.757701 0.045000 0.302002
0.767701 0.045000 0.302002
0.777701 0.045000 0.302002
0.787701 0.045000 0.302002
0.797701 0.045000 0.302002
0.807701 0.045000 0.302002
0.817701 0.045000 0.302002
0.827701 0.045000 0.302002
0.837701 0.045000 0.302002
0.847701 0.045000 0.302002
0.857701 0.045000 0.302002
0.867701 0.045000 0.302002
0.877701 0.045000 0.302002
0.887701 0.045000 0.302002
0.897701 0.045000 0.302002
0.907701 0.045000 0.302002
0.917701 0.045000 0.302002
0.927701 0.045000 0.302002
0.937701 0.045000 0.302002
0.657701 0.055000 0.302002
0.667701 0.055000 0.302002
0.677701 0.055000 0.302002
0.687701 0.055000 0.302002
0.697701 0.055000 0.302002
0.707701 0.055000 0.302002
0.717701 0.055000 0.302002
0.727701 0.055000 0.302002
0.737701 0.055000 0.302002
0.747701 0.055000 0.302002
0.757701 0.055000 0.302002
0.767701 0.055000 0.302002
0.777701 0.055000 0.302002
0.787701 0.055000 0.302002
0.797701 0.055000 0.302002
0.807701 0.055000 0.302002
0.817701 0.055000 0.302002
0.827701 0.055000 0.302002
0.837701 0.055000 0.302002
0.847701 0.055000 0.302002
0.857701 0.055000 0.302002
0.867701 0.055000 0.302002
0.877701 0.055000 0.302002
0.887701 0.055000 0.302002
0.897701 0.055000 0.302002
0.907701 0.055000 0.302002
0.917701 0.055000 0.302002
0.927701 0.055000 0.302002
0.937701 0.055000 0.302002
0.657701 0.065000 0.302002
0.667701 0.065000 0.302002
0.677701 0.065000 0.302002
0.687701 0.065000 0.302002
0.697701 0.065000 0.302002
0.707701 0.065000 0.302002
0.717701 0.065000 0.302002
0.727701 0.065000 0.302002
0.737701 0.065000 0.302002
0.747701 0.065000 0.302002
0.757701 0.065000 0.302002
0.767701 0.065000 0.302002
0.777701 0.065000 0.302002
0.787701 0.065000 0.302002
0.797701 0.065000 0.302002
0.807701 0.065000 0.302002
0.817701 0.065000 0.302002
0.827701 0.065000 0.302002
0.837701 0.065000 0.302002
0.847701 0.065000 0.302002
0.857701 0.065000 0.302002
0.867701 0.065000 0.302002
0.877701 0.065000 0.302002
0.887701 0.065000 0.302002
0.897701 0.065000 0.302002
0.907701 0.065000 0.302002
0.917701 0.065000 0.302002
0.927701 0.065000 0.302002
0.937701 0.065000 0.302002
0.657701 0.075000 0.302002
0.667701 0.075000 0.302002
0.677701 0.075000 0.302002
0.687701 0.075000 0.302002
0.697701 0.075000 0.302002
0.707701 0.075000 0.302002
0.717701 0.075000 0.302002
0.727701 0.075000 0.302002
0.737701 0.075000 0.302002
0.747701 0.075000 0.302002
0.757701 0.075000 0.302002
0.767701 0.075000 0.302002
0.777701 0.075000 0.302002
0.787701 0.075000 0.302002
0.797701 0.075000 0.302002
0.807701 0.075000 0.302002
0.817701 0.075000 0.302002
0.827701 0.075000 0.302002
0.837701 0.075000 0.302002
0.847701 0.075000 0.302002
0.857701 0.075000 0.302002
0.867701 0.075000 0.302002
0.877701 0.075000 0.302002
0.887701 0.075000 0.302002
0.897701 0.075000 0.302002
0.907701 0.075000 0.302002
0.917701 0.075000 0.302002
0.927701 0.075000 0.302002
0.937701 0.075000 0.302002
0.657701 0.085000 0.302002
0.667701 0.085000 0.302002
0.677701 0.085000 0.302002
0.687701 0.085000 0.302002
0.697701 0.085000 0.302002
0.707701 0.085000 0.302002
0.717701 0.085000 0.302002
0.727701 0.085000 0.302002
0.737701 0.085000 0.302002
0.747701 0.085000 0.302002
0.757701 0.085000 0.302002
0.767701 0.085000 0.302002
0.777701 0.085000 0.302002
0.787701 0.085000 0.302002
0.797701 0.085000 0.302002
0.807701 0.085000 0.302002
0.817701 0.085000 0.302002
0.827701 0.085000 0.302002
0.837701 0.085000 0.302002
0.847701 0.085000 0.302002
0.857701 0.085000 0.302002
0.867701 0.085000 0.302002
0.877701 0.085000 0.302002
0.887701 0.085000 0.302002
0.897701 0.085000 0.302002
0.907701 0.085000 0.302002
0.917701 0.085000 0.302002
0.927701 0.085000 0.302002
0.937701 0.085000 0.302002
0.657701 0.095000 0.302002
0.667701 0.095000 0.302002
0.677701 0.095000 0.302002
0.687701 0.095000 0.302002
0.697701 0.095000 0.302002
0.707701 0.095000 0.302002
0.717701 0.095000 0.302002
0.727701 0.095000 0.302002
0.737701 0.095000 0.302002
0.747701 0.095000 0.302002
0.757701 0.095000 0.302002
0.767701 0.095000 0.302002
0.777701 0.095000 0.302002
0.787701 0.095000 0.302002
0.797701 0.095000 0.302002
0.807701 0.095000 0.302002
0.817701 0.095000 0.302002
0.827701 0.095000 0.302002
0.837701 0.095000 0.302002
0.847701 0.095000 0.302002
0.857701 0.095000 0.302002
0.867701 0.095000 0.302002
0.877701 0.095000 0.302002
0.887701 0.095000 0.302002
0.897701 0.095000 0.302002
0.907701 0.095000 0.302002
0.917701 0.095000 0.302002
0.927701 0.095000 0.302002
0.937701 0.095000 0.302002
0.657701 0.105000 0.302002
0.667701 0.105000 0.302002
0.677701 0.105000 0.302002
0.687701 0.105000 0.302002
0.697701 0.105000 0.302002
0.707701 0.105000 0.302002
0.717701 0.105000 0.302002
0.727701 0.105000 0.302002
0.737701 0.105000 0.302002
0.747701 0.105000 0.302002
0.757701 0.105000 0.302002
0.767701 0.105000 0.302002
0.777701 0.105000 0.302002
0.787701 0.105000 0.302002
0.797701 0.105000 0.302002
0.807701 0.105000 0.302002
0.817701 0.105000 0.302002
0.827701 0.105000 0.302002
0.837701 0.105000 0.302002
0.847701 0.105000 0.302002
0.857701 0.105000 0.302002
0.867701 0.105000 0.302002
0.877701 0.105000 0.302002
0.887701 0.105000 0.302002
0.897701 0.105000 0.302002
0.907701 0.105000 0.302002
0.917701 0.105000 0.302002
0.927701 0.105000 0.302002
0.937701 0.105000 0.302002
0.657701 0.115000 0.302002
0.667701 0.115000 0.302002
0.677701 0.115000 0.302002
0.687701 0.115000 0.302002
0.697701 0.115000 0.302002
0.707701 0.115000 0.302002
0.717701 0.115000 0.302002
0.727701 0.115000 0.302002
0.737701 0.115000 0.302002
0.747701 0.115000 0.302002
0.757701 0.115000 0.302002
0.767701 0.115000 0.302002
0.777701 0.115000 0.302002
0.787701 0.115000 0.302002
0.797701 0.115000 0.302002
0.807701 0.115000 0.302002
0.817701 0.115000 0.302002
0.827701 0.115000 0.302002
0.837701 0.115000 0.302002
0.847701 0.115000 0.302002
0.857701 0.115000 0.302002
0.867701 0.115000 0.302002
0.877701 0.115000 0.302002
0.887701 0.115000 0.302002
0.897701 0.115000 0.302002
0.907701 0.115000 0.302002
0.917701 0.115000 0.302002
0.927701 0.115000 0.302002
0.937701 0.115000 0.302002
3 0 1 30
3 0 30 29
3 1 2 31
3 1 31 30
3 2 3 32
3 2 32 31
3 3 4 33
3 3 33 32
3 4 5 34
3 4 34 33
3 5 6 35
3 5 35 34
3 6 7 36
3 6 36 35
3 7 8 37
3 7 37 36
3 8 9 38
3 8 38 37
3 9 10 39
3 9 39 38
3 10 11 40
3 10 40 39
3 11 12 41
3 11 41 40
3 12 13 42
3 12 42 41
3 13 14 43
3 13 43 42
3 14 15 44
3 14 44 43
3 15 16 45
3 15 45 44
3 16 17 46
3 16 46 45
3 17 18 47
3 17 47 46
3 18 19 48
3 18 48 47
3 19 20 49
3 19 49 48
3 20 21 50
3 20 50 49
3 21 22 51
3 21 51 50
3 22 23 52
3 22 52 51
3 23 24 53
3 23 53 52
3 24 25 54
3 24 54 53
3 25 26 55
3 25 55 54
3 26 27 56
3 26 56 55
3 27 28 57
3 27 57 56
3 29 30 59
3 29 59 58
3 30 31 60
3 30 60 59
3 31 32 61
3 31 61 60
3 32 33 62
3 32 62 61
3 33 34 63
3 33 63 62
3 34 35 64
3 34 64 63
3 35 36 65
3 35 65 64
3 36 37 66
3 36 66 65
3 37 38 67
3 37 67 66
3 38 39 68
3 38 68 67
3 39 40 69
3 39 69 68
3 40 41 70
3 40 70 69
3 41 42 71
3 41 71 70
3 42 43 72
3 42 72 71
3 43 44 73
3 43 73 72
3 44 45 74
3 44 74 73
3 45 46 75
3 45 75 74
3 46 47 76
3 46 76 75
3 47 48 77
3 47 77 76
3 48 49 78
3 48 78 77
3 49 50 79
3 49 79 78
3 50 51 80
3 50 80 79
3 51 52 81
3 51 81 80
3 52 53 82
3 52 82 81
3 53 54 83
3 53 83 82
3 54 55 84
3 54 84 83
3 55 56 85
3 55 85 84
3 56 57 86
3 56 86 85
3 58 59 88
3 58 88 87
3 59 60 89
3 59 89 88
3 60 61 90
3 60 90 89
3 61 62 91
3 61 91 90
3 62 63 92
3 62 92 91
3 63 64 93
3 63 93 92
3 64 65 94
3 64 94 93
3 65 66 95
3 65 95 94
3 66 67 96
3 66 96 95
3 67 68 97
3 67 97 96
3 68 69 98
3 68 98 97
3 69 70 99
3 69 99 98
3 70 71 100
3 70 100 99
3 71 72 101
3 71 101 100
3 72 73 102
3 72 102 101
3 73 74 103
3 73 103 102
3 74 75 104
3 74 104 103
3 75 76 105
3 75 105 104
3 76 77 106
3 76 106 105
3 77 78 107
3 77 107 106
3 78 79 108
3 78 108 107
3 79 80 109
3 79 109 108
3 80 81 110
3 80 110 109
3 81 82 111
3 81 111 110
3 82 83 112
3 82 112 111
3 83 84 113
3 83 113 112
3 84 85 114
3 84 114 113
3 85 86 115
3 85 115 114
3 87 88 117
3 87 117 116
3 88 89 118
3 88 118 117
3 89 90 119
3 89 119 118
3 90 91 120
3 90 120 119
3 91 92 121
3 91 121 120
3 92 93 122
3 92 122 121
3 93 94 123
3 93 123 122
3 94 95 124
3 94 124 123
3 95 96 125
3 95 125 124
3 96 97 126
3 96 126 125
3 97 98 127
3 97 127 126
3 98 99 128
3 98 128 127
3 99 100 129
3 99 129 128
3 100 101 130
3 100 130 129
3 101 102 131
3 101 131 130
3 102 103 132
3 102 132 131
3 103 104 133
3 103 133 132
3 104 105 134
3 104 134 133
3 105 106 135
3 105 135 134
3 106 107 136
3 106 136 135
3 107 108 137
3 107 137 136
3 108 109 138
3 108 138 137
3 109 110 139
3 109 139 138
3 110 111 140
3 110 140 139
3 111 112 141
3 111 141 140
3 112 113 142
3 112 142 141
3 113 114 143
3 113 143 142
3 114 115 144
3 114 144 143
3 116 117 146
3 116 146 145
3 117 118 147
3 117 147 146
3 118 119 148
3 118 148 147
3 119 120 149
3 119 149 148
3 120 121 150
3 120 150 149
3 121 122 151
3 121 151 150
3 122 123 152
3 122 152 151
3 123 124 153
3 123 153 152
3 124 125 154
3 124 154 153
3 125 126 155
3 125 155 154
3 126 127 156
3 126 156 155
3 127 128 157
3 127 157 156
3 128 129 158
3 128 158 157
3 129 130 159
3 129 159 158
3 130 131 160
3 130 160 159
3 131 132 161
3 131 161 160
3 132 133 162
3 132 162 161
3 133 134 163
3 133 163 162
3 134 135 164
3 134 164 163
3 135 136 165
3 135 165 164
3 136 137 166
3 136 166 165
3 137 138 167
3 137 167 166
3 138 139 168
3 138 168 167
3 139 140 169
3 139 169 168
3 140 141 170
3 140 170 169
3 141 142 171
3 141 171 170
3 142 143 172
3 142 172 171
3 143 144 173
3 143 173 172
3 145 146 175
3 145 175 174
3 146 147 176
3 146 176 175
3 147 148 177
3 147 177 176
3 148 149 178
3 148 178 177
3 149 150 179
3 149 179 178
3 150 151 180
3 150 180 179
3 151 152 181
3 151 181 180
3 152 153 182
3 152 182 181
3 153 154 183
3 153 183 182
3 154 155 184
3 154 184 183
3 155 156 185
3 155 185 184
3 156 157 186
3 156 186 185
3 157 158 187
3 157 187 186
3 158 159 188
3 158 188 187
3 159 160 189
3 159 189 188
3 160 161 190
3 160 190 189
3 161 162 191
3 161 191 190
3 162 163 192
3 162 192 191
3 163 164 193
3 163 193 192
3 164 165 194
3 164 194 193
3 165 166 195
3 165 195 194
3 166 167 196
3 166 196 195
3 167 168 197
3 167 197 196
3 168 169 198
3 168 198 197
3 169 170 199
3 169 199 198
3 170 171 200
3 170 200 199
3 171 172 201
3 171 201 200
3 172 173 202
3 172 202 201
3 174 175 204
3 174 204 203
3 175 176 205
3 175 205 204
3 176 177 206
3 176 206 205
3 177 178 207
3 177 207 206
3 178 179 208
3 178 208 207
3 179 180 209
3 179 209 208
3 180 181 210
3 180 210 209
3 181 182 211
3 181 211 210
3 182 183 212
3 182 212 211
3 183 184 213
3 183 213 212
3 184 185 214
3 184 214 213
3 185 186 215
3 185 215 214
3 186 187 216
3 186 216 215
3 187 188 217
3 187 217 216
3 188 189 218
3 188 218 217
3 189 190 219
3 189 219 218
3 190 191 220
3 190 220 219
3 191 192 221
3 191 221 220
3 192 193 222
3 192 222 221
3 193 194 223
3 193 223 222
3 194 195 224
3 194 224 223
3 195 196 225
3 195 225 224
3 196 197 226
3 196 226 225
3 197 198 227
3 197 227 226
3 198 199 228
3 198 228 227
3 199 200 229
3 199 229 228
3 200 201 230
3 200 230 229
3 201 202 231
3 201 231 230
3 203 204 233
3 203 233 232
3 204 205 234
3 204 234 233
3 205 206 235
3 205 235 234
3 206 207 236
3 206 236 235
3 207 208 237
3 207 237 236
3 208 209 238
3 208 238 237
3 209 210 239
3 209 239 238
3 210 211 240
3 210 240 239
3 211 212 241
3 211 241 240
3 212 213 242
3 212 242 241
3 213 214 243
3 213 243 242
3 214 215 244
3 214 244 243
3 215 216 245
3 215 245 244
3 216 217 246
3 216 246 245
3 217 218 247
3 217 247 246
3 218 219 248
3 218 248 247
3 219 220 249
3 219 249 248
3 220 221 250
3 220 250 249
3 221 222 251
3 221 251 250
3 222 223 252
3 222 252 251
3 223 224 253
3 223 253 252
3 224 225 254
3 224 254 253
3 225 226 255
3 225 255 254
3 226 227 256
3 226 256 255
3 227 228 257
3 227 257 256
3 228 229 258
3 228 258 257
3 229 230 259
3 229 259 258
3 230 231 260
3 230 260 259
3 232 233 262
3 232 262 261
3 233 234 263
3 233 263 262
3 234 235 264
3 234 264 263
3 235 236 265
3 235 265 264
3 236 237 266
3 236 266 265
3 237 238 267
3 237 267 266
3 238 239 268
3 238 268 267
3 239 240 269
3 239 269 268
3 240 241 270
3 240 270 269
3 241 242 271
3 241 271 270
3 242 243 272
3 242 272 271
3 243 244 273
3 243 273 272
3 244 245 274
3 244 274 273
3 245 246 275
3 245 275 274
3 246 247 276
3 246 276 275
3 247 248 277
3 247 277 276
3 248 249 278
3 248 278 277
3 249 250 279
3 249 279 278
3 250 251 280
3 250 280 279
3 251 252 281
3 251 281 280
3 252 253 282
3 252 282 281
3 253 254 283
3 253 283 282
3 254 255 284
3 254 284 283
3 255 256 285
3 255 285 284
3 256 257 286
3 256 286 285
3 257 258 287
3 257 287 286
3 258 259 288
3 258 288 287
3 259 260 289
3 259 289 288
3 261 262 291
3 261 291 290
3 262 263 292
3 262 292 291
3 263 264 293
3 263 293 292
3 264 265 294
3 264 294 293
3 265 266 295
3 265 295 294
3 266 267 296
3 266 296 295
3 267 268 297
3 267 297 296
3 268 269 298
3 268 298 297
3 269 270 299
3 269 299 298
3 270 271 300
3 270 300 299
3 271 272 301
3 271 301 300
3 272 273 302
3 272 302 301
3 273 274 303
3 273 303 302
3 274 275 304
3 274 304 303
3 275 276 305
3 275 305 304
3 276 277 306
3 276 306 305
3 277 278 307
3 277 307 306
3 278 279 308
3 278 308 307
3 279 280 309
3 279 309 308
3 280 281 310
3 280 310 309
3 281 282 311
3 281 311 310
3 282 283 312
3 282 312 311
3 283 284 313
3 283 313 312
3 284 285 314
3 284 314 313
3 285 286 315
3 285 315 314
3 286 287 316
3 286 316 315
3 287 288 317
3 287 317 316
3 288 289 318
3 288 318 317
3 290 291 320
3 290 320 319
3 291 292 321
3 291 321 320
3 292 293 322
3 292 322 321
3 293 294 323
3 293 323 322
3 294 295 324
3 294 324 323
3 295 296 325
3 295 325 324
3 296 297 326
3 296 326 325
3 297 298 327
3 297 327 326
3 298 299 328
3 298 328 327
3 299 300 329
3 299 329 328
3 300 301 330
3 300 330 329
3 301 302 331
3 301 331 330
3 302 303 332
3 302 332 331
3 303 304 333
3 303 333 332
3 304 305 334
3 304 334 333
3 305 306 335
3 305 335 334
3 306 307 336
3 306 336 335
3 307 308 337
3 307 337 336
3 308 309 338
3 308 338 337
3 309 310 339
3 309 339 338
3 310 311 340
3 310 340 339
3 311 312 341
3 311 341 340
3 312 313 342
3 312 342 341
3 313 314 343
3 313 343 342
3 314 315 344
3 314 344 343
3 315 316 345
3 315 345 344
3 316 317 346
3 316 346 345
3 317 318 347
3 317 347 346
3 319 320 349
3 319 349 348
3 320 321 350
3 320 350 349
3 321 322 351
3 321 351 350
3 322 323 352
3 322 352 351
3 323 324 353
3 323 353 352
3 324 325 354
3 324 354 353
3 325 326 355
3 325 355 354
3 326 327 356
3 326 356 355
3 327 328 357
3 327 357 356
3 328 329 358
3 328 358 357
3 329 330 359
3 329 359 358
3 330 331 360
3 330 360 359
3 331 332 361
3 331 361 360
3 332 333 362
3 332 362 361
3 333 334 363
3 333 363 362
3 334 335 364
3 334 364 363
3 335 336 365
3 335 365 364
3 336 337 366
3 336 366 365
3 337 338 367
3 337 367 366
3 338 339 368
3 338 368 367
3 339 340 369
3 339 369 368
3 340 341 370
3 340 370 369
3 341 342 371
3 341 371 370
3 342 343 372
3 342 372 371
3 343 344 373
3 343 373 372
3 344 345 374
3 344 374 373
3 345 346 375
3 345 375 374
3 346 347 376
3 346 376 375
3 348 349 378
3 348 378 377
3 349 350 379
3 349 379 378
3 350 351 380
3 350 380 379
3 351 352 381
3 351 381 380
3 352 353 382
3 352 382 381
3 353 354 383
3 353 383 382
3 354 355 384
3 354 384 383
3 355 356 385
3 355 385 384
3 356 357 386
3 356 386 385
3 357 358 387
3 357 387 386
3 358 359 388
3 358 388 387
3 359 360 389
3 359 389 388
3 360 361 390
3 360 390 389
3 361 362 391
3 361 391 390
3 362 363 392
3 362 392 391
3 363 364 393
3 363 393 392
3 364 365 394
3 364 394 393
3 365 366 395
3 365 395 394
3 366 367 396
3 366 396 395
3 367 368 397
3 367 397 396
3 368 369 398
3 368 398 397
3 369 370 399
3 369 399 398
3 370 371 400
3 370 400 399
3 371 372 401
3 371 401 400
3 372 373 402
3 372 402 401
3 373 374 403
3 373 403 402
3 374 375 404
3 374 404 403
3 375 376 405
3 375 405 404
3 377 378 407
3 377 407 406
3 378 379 408
3 378 408 407
3 379 380 409
3 379 409 408
3 380 381 410
3 380 410 409
3 381 382 411
3 381 411 410
3 382 383 412
3 382 412 411
3 383 384 413
3 383 413 412
3 384 385 414
3 384 414 413
3 385 386 415
3 385 415 414
3 386 387 416
3 386 416 415
3 387 388 417
3 387 417 416
3 388 389 418
3 388 418 417
3 389 390 419
3 389 419 418
3 390 391 420
3 390 420 419
3 391 392 421
3 391 421 420
3 392 393 422
3 392 422 421
3 393 394 423
3 393 423 422
3 394 395 424
3 394 424 423
3 395 396 425
3 395 425 424
3 396 397 426
3 396 426 425
3 397 398 427
3 397 427 426
3 398 399 428
3 398 428 427
3 399 400 429
3 399 429 428
3 400 401 430
3 400 430 429
3 401 402 431
3 401 431 430
3 402 403 432
3 402 432 431
3 403 404 433
3 403 433 432
3 404 405 434
3 404 434 433
3 406 407 436
3 406 436 435
3 407 408 437
3 407 437 436
3 408 409 438
3 408 438 437
3 409 410 439
3 409 439 438
3 410 411 440
3 410 440 439
3 411 412 441
3 411 441 440
3 412 413 442
3 412 442 441
3 413 414 443
3 413 443 442
3 414 415 444
3 414 444 443
3 415 416 445
3 415 445 444
3 416 417 446
3 416 446 445
3 417 418 447
3 417 447 446
3 418 419 448
3 418 448 447
3 419 420 449
3 419 449 448
3 420 421 450
3 420 450 449
3 421 422 451
3 421 451 450
3 422 423 452
3 422 452 451
3 423 424 453
3 423 453 452
3 424 425 454
3 424 454 453
3 425 426 455
3 425 455 454
3 426 427 456
3 426 456 455
3 427 428 457
3 427 457 456
3 428 429 458
3 428 458 457
3 429 430 459
3 429 459 458
3 430 431 460
3 430 460 459
3 431 432 461
3 431 461 460
3 432 433 462
3 432 462 461
3 433 434 463
3 433 463 462
3 435 436 465
3 435 465 464
3 436 437 466
3 436 466 465
3 437 438 467
3 437 467 466
3 438 439 468
3 438 468 467
3 439 440 469
3 439 469 468
3 440 441 470
3 440 470 469
3 441 442 471
3 441 471 470
3 442 443 472
3 442 472 471
3 443 444 473
3 443 473 472
3 444 445 474
3 444 474 473
3 445 446 475
3 445 475 474
3 446 447 476
3 446 476 475
3 447 448 477
3 447 477 476
3 448 449 478
3 448 478 477
3 449 450 479
3 449 479 478
3 450 451 480
3 450 480 479
3 451 452 481
3 451 481 480
3 452 453 482
3 452 482 481
3 453 454 483
3 453 483 482
3 454 455 484
3 454 484 483
3 455 456 485
3 455 485 484
3 456 457 486
3 456 486 485
3 457 458 487
3 457 487 486
3 458 459 488
3 458 488 487
3 459 460 489
3 459 489 488
3 460 461 490
3 460 490 489
3 461 462 491
3 461 491 490
3 462 463 492
3 462 492 491
3 464 465 494
3 464 494 493
3 465 466 495
3 465 495 494
3 466 467 496
3 466 496 495
3 467 468 497
3 467 497 496
3 468 469 498
3 468 498 497
3 469 470 499
3 469 499 498
3 470 471 500
3 470 500 499
3 471 472 501
3 471 501 500
3 472 473 502
3 472 502 501
3 473 474 503
3 473 503 502
3 474 475 504
3 474 504 503
3 475 476 505
3 475 505 504
3 476 477 506
3 476 506 505
3 477 478 507
3 477 507 506
3 478 479 508
3 478 508 507
3 479 480 509
3 479 509 508
3 480 481 510
3 480 510 509
3 481 482 511
3 481 511 510
3 482 483 512
3 482 512 511
3 483 484 513
3 483 513 512
3 484 485 514
3 484 514 513
3 485 486 515
3 485 515 514
3 486 487 516
3 486 516 515
3 487 488 517
3 487 517 516
3 488 489 518
3 488 518 517
3 489 490 519
3 489 519 518
3 490 491 520
3 490 520 519
3 491 492 521
3 491 521 520
3 493 494 523
3 493 523 522
3 494 495 524
3 494 524 523
3 495 496 525
3 495 525 524
3 496 497 526
3 496 526 525
3 497 498 527
3 497 527 526
3 498 499 528
3 498 528 527
3 499 500 529
3 499 529 528
3 500 501 530
3 500 530 529
3 501 502 531
3 501 531 530
3 502 503 532
3 502 532 531
3 503 504 533
3 503 533 532
3 504 505 534
3 504 534 533
3 505 506 535
3 505 535 534
3 506 507 536
3 506 536 535
3 507 508 537
3 507 537 536
3 508 509 538
3 508 538 537
3 509 510 539
3 509 539 538
3 510 511 540
3 510 540 539
3 511 512 541
3 511 541 540
3 512 513 542
3 512 542 541
3 513 514 543
3 513 543 542
3 514 515 544
3 514 544 543
3 515 516 545
3 515 545 544
3 516 517 546
3 516 546 545
3 517 518 547
3 517 547 546
3 518 519 548
3 518 548 547
3 519 520 549
3 519 549 548
3 520 521 550
3 520 550 549
3 522 523 552
3 522 552 551
3 523 524 553
3 523 553 552
3 524 525 554
3 524 554 553
3 525 526 555
3 525 555 554
3 526 527 556
3 526 556 555
3 527 528 557
3 527 557 556
3 528 529 558
3 528 558 557
3 529 530 559
3 529 559 558
3 530 531 560
3 530 560 559
3 531 532 561
3 531 561 560
3 532 533 562
3 532 562 561
3 533 534 563
3 533 563 562
3 534 535 564
3 534 564 563
3 535 536 565
3 535 565 564
3 536 537 566
3 536 566 565
3 537 538 567
3 537 567 566
3 538 539 568
3 538 568 567
3 539 540 569
3 539 569 568
3 540 541 570
3 540 570 569
3 541 542 571
3 541 571 570
3 542 543 572
3 542 572 571
3 543 544 573
3 543 573 572
3 544 545 574
3 544 574 573
3 545 546 575
3 545 575 574
3 546 547 576
3 546 576 575
3 547 548 577
3 547 577 576
3 548 549 578
3 548 578 577
3 549 550 579
3 549 579 578
3 551 552 581
3 551 581 580
3 552 553 582
3 552 582 581
3 553 554 583
3 553 583 582
3 554 555 584
3 554 584 583
3 555 556 585
3 555 585 584
3 556 557 586
3 556 586 585
3 557 558 587
3 557 587 586
3 558 559 588
3 558 588 587
3 559 560 589
3 559 589 588
3 560 561 590
3 560 590 589
3 561 562 591
3 561 591 590
3 562 563 592
3 562 592 591
3 563 564 593
3 563 593 592
3 564 565 594
3 564 594 593
3 565 566 595
3 565 595 594
3 566 567 596
3 566 596 595
3 567 568 597
3 567 597 596
3 568 569 598
3 568 598 597
3 569 570 599
3 569 599 598
3 570 571 600
3 570 600 599
3 571 572 601
3 571 601 600
3 572 573 602
3 572 602 601
3 573 574 603
3 573 603 602
3 574 575 604
3 574 604 603
3 575 576 605
3 575 605 604
3 576 577 606
3 576 606 605
3 577 578 607
3 577 607 606
3 578 579 608
3 578 608 607
3 580 581 610
3 580 610 609
3 581 582 611
3 581 611 610
3 582 583 612
3 582 612 611
3 583 584 613
3 583 613 612
3 584 585 614
3 584 614 613
3 585 586 615
3 585 615 614
3 586 587 616
3 586 616 615
3 587 588 617
3 587 617 616
3 588 589 618
3 588 618 617
3 589 590 619
3 589 619 618
3 590 591 620
3 590 620 619
3 591 592 621
3 591 621 620
3 592 593 622
3 592 622 621
3 593 594 623
3 593 623 622
3 594 595 624
3 594 624 623
3 595 596 625
3 595 625 624
3 596 597 626
3 596 626 625
3 597 598 627
3 597 627 626
3 598 599 628
3 598 628 627
3 599 600 629
3 599 629 628
3 600 601 630
3 600 630 629
3 601 602 631
3 601 631 630
3 602 603 632
3 602 632 631
3 603 604 633
3 603 633 632
3 604 605 634
3 604 634 633
3 605 606 635
3 605 635 634
3 606 607 636
3 606 636 635
3 607 608 637
3 607 637 636
3 667 668 639
3 667 639 638
3 668 669 640
3 668 640 639
3 669 670 641
3 669 641 640
3 670 671 642
3 670 642 641
3 671 672 643
3 671 643 642
3 672 673 644
3 672 644 643
3 673 674 645
3 673 645 644
3 674 675 646
3 674 646 645
3 675 676 647
3 675 647 646
3 676 677 648
3 676 648 647
3 677 678 649
3 677 649 648
3 678 679 650
3 678 650 649
3 679 680 651
3 679 651 650
3 680 681 652
3 680 652 651
3 681 682 653
3 681 653 652
3 682 683 654
3 682 654 653
3 683 684 655
3 683 655 654
3 684 685 656
3 684 656 655
3 685 686 657
3 685 657 656
3 686 687 658
3 686 658 657
3 687 688 659
3 687 659 658
3 688 689 660
3 688 660 659
3 689 690 661
3 689 661 660
3 690 691 662
3 690 662 661
3 691 692 663
3 691 663 662
3 692 693 664
3 692 664 663
3 693 694 665
3 693 665 664
3 694 695 666
3 694 666 665
3 696 697 668
3 696 668 667
3 697 698 669
3 697 669 668
3 698 699 670
3 698 670 669
3 699 700 671
3 699 671 670
3 700 701 672
3 700 672 671
3 701 702 673
3 701 673 672
3 702 703 674
3 702 674 673
3 703 704 675
3 703 675 674
3 704 705 676
3 704 676 675
3 705 706 677
3 705 677 676
3 706 707 678
3 706 678 677
3 707 708 679
3 707 679 678
3 708 709 680
3 708 680 679
3 709 710 681
3 709 681 680
3 710 711 682
3 710 682 681
3 711 712 683
3 711 683 682
3 712 713 684
3 712 684 683
3 713 714 685
3 713 685 684
3 714 715 686
3 714 686 685
3 715 716 687
3 715 687 686
3 716 717 688
3 716 688 687
3 717 718 689
3 717 689 688
3 718 719 690
3 718 690 689
3 719 720 691
3 719 691 690
3 720 721 692
3 720 692 691
3 721 722 693
3 721 693 692
3 722 723 694
3 722 694 693
3 723 724 695
3 723 695 694
3 725 726 697
3 725 697 696
3 726 727 698
3 726 698 697
3 727 728 699
3 727 699 698
3 728 729 700
3 728 700 699
3 729 730 701
3 729 701 700
3 730 731 702
3 730 702 701
3 731 732 703
3 731 703 702
3 732 733 704
3 732 704 703
3 733 734 705
3 733 705 704
3 734 735 706
3 734 706 705
3 735 736 707
3 735 707 706
3 736 737 708
3 736 708 707
3 737 738 709
3 737 709 708
3 738 739 710
3 738 710 709
3 739 740 711
3 739 711 710
3 740 741 712
3 740 712 711
3 741 742 713
3 741 713 712
3 742 743 714
3 742 714 713
3 743 744 715
3 743 715 714
3 744 745 716
3 744 716 715
3 745 746 717
3 745 717 716
3 746 747 718
3 746 718 717
3 747 748 719
3 747 719 718
3 748 749 720
3 748 720 719
3 749 750 721
3 749 721 720
3 750 751 722
3 750 722 721
3 751 752 723
3 751 723 722
3 752 753 724
3 752 724 723
3 754 755 726
3 754 726 725
3 755 756 727
3 755 727 726
3 756 757 728
3 756 728 727
3 757 758 729
3 757 729 728
3 758 759 730
3 758 730 729
3 759 760 731
3 759 731 730
3 760 761 732
3 760 732 731
3 761 762 733
3 761 733 732
3 762 763 734
3 762 734 733
3 763 764 735
3 763 735 734
3 764 765 736
3 764 736 735
3 765 766 737
3 765 737 736
3 766 767 738
3 766 738 737
3 767 768 739
3 767 739 738
3 768 769 740
3 768 740 739
3 769 770 741
3 769 741 740
3 770 771 742
3 770 742 741
3 771 772 743
3 771 743 742
3 772 773 744
3 772 744 743
3 773 774 745
3 773 745 744
3 774 775 746
3 774 746 745
3 775 776 747
3 775 747 746
3 776 777 748
3 776 748 747
3 777 778 749
3 777 749 748
3 778 779 750
3 778 750 749
3 779 780 751
3 779 751 750
3 780 781 752
3 780 752 751
3 781 782 753
3 781 753 752
3 783 784 755
3 783 755 754
3 784 785 756
3 784 756 755
3 785 786 757
3 785 757 756
3 786 787 758
3 786 758 757
3 787 788 759
3 787 759 758
3 788 789 760
3 788 760 759
3 789 790 761
3 789 761 760
3 790 791 762
3 790 762 761
3 791 792 763
3 791 763 762
3 792 793 764
3 792 764 763
3 793 794 765
3 793 765 764
3 794 795 766
3 794 766 765
3 795 796 767
3 795 767 766
3 796 797 768
3 796 768 767
3 797 798 769
3 797 769 768
3 798 799 770
3 798 770 769
3 799 800 771
3 799 771 770
3 800 801 772
3 800 772 771
3 801 802 773
3 801 773 772
3 802 803 774
3 802 774 773
3 803 804 775
3 803 775 774
3 804 805 776
3 804 776 775
3 805 806 777
3 805 777 776
3 806 807 778
3 806 778 777
3 807 808 779
3 807 779 778
3 808 809 780
3 808 780 779
3 809 810 781
3 809 781 780
3 810 811 782
3 810 782 781
3 812 813 784
3 812 784 783
3 813 814 785
3 813 785 784
3 814 815 786
3 814 786 785
3 815 816 787
3 815 787 786
3 816 817 788
3 816 788 787
3 817 818 789
3 817 789 788
3 818 819 790
3 818 790 789
3 819 820 791
3 819 791 790
3 820 821 792
3 820 792 791
3 821 822 793
3 821 793 792
3 822 823 794
3 822 794 793
3 823 824 795
3 823 795 794
3 824 825 796
3 824 796 795
3 825 826 797
3 825 797 796
3 826 827 798
3 826 798 797
3 827 828 799
3 827 799 798
3 828 829 800
3 828 800 799
3 829 830 801
3 829 801 800
3 830 831 802
3 830 802 801
3 831 832 803
3 831 803 802
3 832 833 804
3 832 804 803
3 833 834 805
3 833 805 804
3 834 835 806
3 834 806 805
3 835 836 807
3 835 807 806
3 836 837 808
3 836 808 807
3 837 838 809
3 837 809 808
3 838 839 810
3 838 810 809
3 839 840 811
3 839 811 810
3 841 842 813
3 841 813 812
3 842 843 814
3 842 814 813
3 843 844 815
3 843 815 814
3 844 845 816
3 844 816 815
3 845 846 817
3 845 817 816
3 846 847 818
3 846 818 817
3 847 848 819
3 847 819 818
3 848 849 820
3 848 820 819
3 849 850 821
3 849 821 820
3 850 851 822
3 850 822 821
3 851 852 823
3 851 823 822
3 852 853 824
3 852 824 823
3 853 854 825
3 853 825 824
3 854 855 826
3 854 826 825
3 855 856 827
3 855 827 826
3 856 857 828
3 856 828 827
3 857 858 829
3 857 829 828
3 858 859 830
3 858 830 829
3 859 860 831
3 859 831 830
3 860 861 832
3 860 832 831
3 861 862 833
3 861 833 832
3 862 863 834
3 862 834 833
3 863 864 835
3 863 835 834
3 864 865 836
3 864 836 835
3 865 866 837
3 865 837 836
3 866 867 838
3 866 838 837
3 867 868 839
3 867 839 838
3 868 869 840
3 868 840 839
3 870 871 842
3 870 842 841
3 871 872 843
3 871 843 842
3 872 873 844
3 872 844 843
3 873 874 845
3 873 845 844
3 874 875 846
3 874 846 845
3 875 876 847
3 875 847 846
3 876 877 848
3 876 848 847
3 877 878 849
3 877 849 848
3 878 879 850
3 878 850 849
3 879 880 851
3 879 851 850
3 880 881 852
3 880 852 851
3 881 882 853
3 881 853 852
3 882 883 854
3 882 854 853
3 883 884 855
3 883 855 854
3 884 885 856
3 884 856 855
3 885 886 857
3 885 857 856
3 886 887 858
3 886 858 857
3 887 888 859
3 887 859 858
3 888 889 860
3 888 860 859
3 889 890 861
3 889 861 860
3 890 891 862
3 890 862 861
3 891 892 863
3 891 863 862
3 892 893 864
3 892 864 863
3 893 894 865
3 893 865 864
3 894 895 866
3 894 866 865
3 895 896 867
3 895 867 866
3 896 897 868
3 896 868 867
3 897 898 869
3 897 869 868
3 899 900 871
3 899 871 870
3 900 901 872
3 900 872 871
3 901 902 873
3 901 873 872
3 902 903 874
3 902 874 873
3 903 904 875
3 903 875 874
3 904 905 876
3 904 876 875
3 905 906 877
3 905 877 876
3 906 907 878
3 906 878 877
3 907 908 879
3 907 879 878
3 908 909 880
3 908 880 879
3 909 910 881
3 909 881 880
3 910 911 882
3 910 882 881
3 911 912 883
3 911 883 882
3 912 913 884
3 912 884 883
3 913 914 885
3 913 885 884
3 914 915 886
3 914 886 885
3 915 916 887
3 915 887 886
3 916 917 888
3 916 888 887
3 917 918 889
3 917 889 888
3 918 919 890
3 918 890 889
3 919 920 891
3 919 891 890
3 920 921 892
3 920 892 891
3 921 922 893
3 921 893 892
3 922 923 894
3 922 894 893
3 923 924 895
3 923 895 894
3 924 925 896
3 924 896 895
3 925 926 897
3 925 897 896
3 926 927 898
3 926 898 897
3 928 929 900
3 928 900 899
3 929 930 901
3 929 901 900
3 930 931 902
3 930 902 901
3 931 932 903
3 931 903 902
3 932 933 904
3 932 904 903
3 933 934 905
3 933 905 904
3 934 935 906
3 934 906 905
3 935 936 907
3 935 907 906
3 936 937 908
3 936 908 907
3 937 938 909
3 937 909 908
3 938 939 910
3 938 910 909
3 939 940 911
3 939 911 910
3 940 941 912
3 940 912 911
3 941 942 913
3 941 913 912
3 942 943 914
3 942 914 913
3 943 944 915
3 943 915 914
3 944 945 916
3 944 916 915
3 945 946 917
3 945 917 916
3 946 947 918
3 946 918 917
3 947 948 919
3 947 919 918
3 948 949 920
3 948 920 919
3 949 950 921
3 949 921 920
3 950 951 922
3 950 922 921
3 951 952 923
3 951 923 922
3 952 953 924
3 952 924 923
3 953 954 925
3 953 925 924
3 954 955 926
3 954 926 925
3 955 956 927
3 955 927 926
3 957 958 929
3 957 929 928
3 958 959 930
3 958 930 929
3 959 960 931
3 959 931 930
3 960 961 932
3 960 932 931
3 961 962 933
3 961 933 932
3 962 963 934
3 962 934 933
3 963 964 935
3 963 935 934
3 964 965 936
3 964 936 935
3 965 966 937
3 965 937 936
3 966 967 938
3 966 938 937
3 967 968 939
3 967 939 938
3 968 969 940
3 968 940 939
3 969 970 941
3 969 941 940
3 970 971 942
3 970 942 941
3 971 972 943
3 971 943 942
3 972 973 944
3 972 944 943
3 973 974 945
3 973 945 944
3 974 975 946
3 974 946 945
3 975 976 947
3 975 947 946
3 976 977 948
3 976 948 947
3 977 978 949
3 977 949 948
3 978 979 950
3 978 950 949
3 979 980 951
3 979 951 950
3 980 981 952
3 980 952 951
3 981 982 953
3 981 953 952
3 982 983 954
3 982 954 953
3 983 984 955
3 983 955 954
3 984 985 956
3 984 956 955
3 986 987 958
3 986 958 957
3 987 988 959
3 987 959 958
3 988 989 960
3 988 960 959
3 989 990 961
3 989 961 960
3 990 991 962
3 990 962 961
3 991 992 963
3 991 963 962
3 992 993 964
3 992 964 963
3 993 994 965
3 993 965 964
3 994 995 966
3 994 966 965
3 995 996 967
3 995 967 966
3 996 997 968
3 996 968 967
3 997 998 969
3 997 969 968
3 998 999 970
3 998 970 969
3 999 1000 971
3 999 971 970
3 1000 1001 972
3 1000 972 971
3 1001 1002 973
3 1001 973 972
3 1002 1003 974
3 1002 974 973
3 1003 1004 975
3 1003 975 974
3 1004 1005 976
3 1004 976 975
3 1005 1006 977
3 1005 977 976
3 1006 1007 978
3 1006 978 977
3 1007 1008 979
3 1007 979 978
3 1008 1009 980
3 1008 980 979
3 1009 1010 981
3 1009 981 980
3 1010 1011 982
3 1010 982 981
3 1011 1012 983
3 1011 983 982
3 1012 1013 984
3 1012 984 983
3 1013 1014 985
3 1013 985 984
3 1015 1016 987
3 1015 987 986
3 1016 1017 988
3 1016 988 987
3 1017 1018 989
3 1017 989 988
3 1018 1019 990
3 1018 990 989
3 1019 1020 991
3 1019 991 990
3 1020 1021 992
3 1020 992 991
3 1021 1022 993
3 1021 993 992
3 1022 1023 994
3 1022 994 993
3 1023 1024 995
3 1023 995 994
3 1024 1025 996
3 1024 996 995
3 1025 1026 997
3 1025 997 996
3 1026 1027 998
3 1026 998 997
3 1027 1028 999
3 1027 999 998
3 1028 1029 1000
3 1028 1000 999
3 1029 1030 1001
3 1029 1001 1000
3 1030 1031 1002
3 1030 1002 1001
3 1031 1032 1003
3 1031 1003 1002
3 1032 1033 1004
3 1032 1004 1003
3 1033 1034 1005
3 1033 1005 1004
3 1034 1035 1006
3 1034 1006 1005
3 1035 1036 1007
3 1035 1007 1006
3 1036 1037 1008
3 1036 1008 1007
3 1037 1038 1009
3 1037 1009 1008
3 1038 1039 1010
3 1038 1010 1009
3 1039 1040 1011
3 1039 1011 1010
3 1040 1041 1012
3 1040 1012 1011
3 1041 1042 1013
3 1041 1013 1012
3 1042 1043 1014
3 1042 1014 1013
3 1044 1045 1016
3 1044 1016 1015
3 1045 1046 1017
3 1045 1017 1016
3 1046 1047 1018
3 1046 1018 1017
3 1047 1048 1019
3 1047 1019 1018
3 1048 1049 1020
3 1048 1020 1019
3 1049 1050 1021
3 1049 1021 1020
3 1050 1051 1022
3 1050 1022 1021
3 1051 1052 1023
3 1051 1023 1022
3 1052 1053 1024
3 1052 1024 1023
3 1053 1054 1025
3 1053 1025 1024
3 1054 1055 1026
3 1054 1026 1025
3 1055 1056 1027
3 1055 1027 1026
3 1056 1057 1028
3 1056 1028 1027
3 1057 1058 1029
3 1057 1029 1028
3 1058 1059 1030
3 1058 1030 1029
3 1059 1060 1031
3 1059 1031 1030
3 1060 1061 1032
3 1060 1032 1031
3 1061 1062 1033
3 1061 1033 1032
3 1062 1063 1034
3 1062 1034 1033
3 1063 1064 1035
3 1063 1035 1034
3 1064 1065 1036
3 1064 1036 1035
3 1065 1066 1037
3 1065 1037 1036
3 1066 1067 1038
3 1066 1038 1037
3 1067 1068 1039
3 1067 1039 1038
3 1068 1069 1040
3 1068 1040 1039
3 1069 1070 1041
3 1069 1041 1040
3 1070 1071 1042
3 1070 1042 1041
3 1071 1072 1043
3 1071 1043 1042
3 1073 1074 1045
3 1073 1045 1044
3 1074 1075 1046
3 1074 1046 1045
3 1075 1076 1047
3 1075 1047 1046
3 1076 1077 1048
3 1076 1048 1047
3 1077 1078 1049
3 1077 1049 1048
3 1078 1079 1050
3 1078 1050 1049
3 1079 1080 1051
3 1079 1051 1050
3 1080 1081 1052
3 1080 1052 1051
3 1081 1082 1053
3 1081 1053 1052
3 1082 1083 1054
3 1082 1054 1053
3 1083 1084 1055
3 1083 1055 1054
3 1084 1085 1056
3 1084 1056 1055
3 1085 1086 1057
3 1085 1057 1056
3 1086 1087 1058
3 1086 1058 1057
3 1087 1088 1059
3 1087 1059 1058
3 1088 1089 1060
3 1088 1060 1059
3 1089 1090 1061
3 1089 1061 1060
3 1090 1091 1062
3 1090 1062 1061
3 1091 1092 1063
3 1091 1063 1062
3 1092 1093 1064
3 1092 1064 1063
3 1093 1094 1065
3 1093 1065 1064
3 1094 1095 1066
3 1094 1066 1065
3 1095 1096 1067
3 1095 1067 1066
3 1096 1097 1068
3 1096 1068 1067
3 1097 1098 1069
3 1097 1069 1068
3 1098 1099 1070
3 1098 1070 1069
3 1099 1100 1071
3 1099 1071 1070
3 1100 1101 1072
3 1100 1072 1071
3 1102 1103 1074
3 1102 1074 1073
3 1103 1104 1075
3 1103 1075 1074
3 1104 1105 1076
3 1104 1076 1075
3 1105 1106 1077
3 1105 1077 1076
3 1106 1107 1078
3 1106 1078 1077
3 1107 1108 1079
3 1107 1079 1078
3 1108 1109 1080
3 1108 1080 1079
3 1109 1110 1081
3 1109 1081 1080
3 1110 1111 1082
3 1110 1082 1081
3 1111 1112 1083
3 1111 1083 1082
3 1112 1113 1084
3 1112 1084 1083
3 1113 1114 1085
3 1113 1085 1084
3 1114 1115 1086
3 1114 1086 1085
3 1115 1116 1087
3 1115 1087 1086
3 1116 1117 1088
3 1116 1088 1087
3 1117 1118 1089
3 1117 1089 1088
3 1118 1119 1090
3 1118 1090 1089
3 1119 1120 1091
3 1119 1091 1090
3 1120 1121 1092
3 1120 1092 1091
3 1121 1122 1093
3 1121 1093 1092
3 1122 1123 1094
3 1122 1094 1093
3 1123 1124 1095
3 1123 1095 1094
3 1124 1125 1096
3 1124 1096 1095
3 1125 1126 1097
3 1125 1097 1096
3 1126 1127 1098
3 1126 1098 1097
3 1127 1128 1099
3 1127 1099 1098
3 1128 1129 1100
3 1128 1100 1099
3 1129 1130 1101
3 1129 1101 1100
3 1131 1132 1103
3 1131 1103 1102
3 1132 1133 1104
3 1132 1104 1103
3 1133 1134 1105
3 1133 1105 1104
3 1134 1135 1106
3 1134 1106 1105
3 1135 1136 1107
3 1135 1107 1106
3 1136 1137 1108
3 1136 1108 1107
3 1137 1138 1109
3 1137 1109 1108
3 1138 1139 1110
3 1138 1110 1109
3 1139 1140 1111
3 1139 1111 1110
3 1140 1141 1112
3 1140 1112 1111
3 1141 1142 1113
3 1141 1113 1112
3 1142 1143 1114
3 1142 1114 1113
3 1143 1144 1115
3 1143 1115 1114
3 1144 1145 1116
3 1144 1116 1115
3 1145 1146 1117
3 1145 1117 1116
3 1146 1147 1118
3 1146 1118 1117
3 1147 1148 1119
3 1147 1119 1118
3 1148 1149 1120
3 1148 1120 1119
3 1149 1150 1121
3 1149 1121 1120
3 1150 1151 1122
3 1150 1122 1121
3 1151 1152 1123
3 1151 1123 1122
3 1152 1153 1124
3 1152 1124 1123
3 1153 1154 1125
3 1153 1125 1124
3 1154 1155 1126
3 1154 1126 1125
3 1155 1156 1127
3 1155 1127 1126
3 1156 1157 1128
3 1156 1128 1127
3 1157 1158 1129
3 1157 1129 1128
3 1158 1159 1130
3 1158 1130 1129
3 1160 1161 1132
3 1160 1132 1131
3 1161 1162 1133
3 1161 1133 1132
3 1162 1163 1134
3 1162 1134 1133
3 1163 1164 1135
3 1163 1135 1134
3 1164 1165 1136
3 1164 1136 1135
3 1165 1166 1137
3 1165 1137 1136
3 1166 1167 1138
3 1166 1138 1137
3 1167 1168 1139
3 1167 1139 1138
3 1168 1169 1140
3 1168 1140 1139
3 1169 1170 1141
3 1169 1141 1140
3 1170 1171 1142
3 1170 1142 1141
3 1171 1172 1143
3 1171 1143 1142
3 1172 1173 1144
3 1172 1144 1143
3 1173 1174 1145
3 1173 1145 1144
3 1174 1175 1146
3 1174 1146 1145
3 1175 1176 1147
3 1175 1147 1146
3 1176 1177 1148
3 1176 1148 1147
3 1177 1178 1149
3 1177 1149 1148
3 1178 1179 1150
3 1178 1150 1149
3 1179 1180 1151
3 1179 1151 1150
3 1180 1181 1152
3 1180 1152 1151
3 1181 1182 1153
3 1181 1153 1152
3 1182 1183 1154
3 1182 1154 1153
3 1183 1184 1155
3 1183 1155 1154
3 1184 1185 1156
3 1184 1156 1155
3 1185 1186 1157
3 1185 1157 1156
3 1186 1187 1158
3 1186 1158 1157
3 1187 1188 1159
3 1187 1159 1158
3 1189 1190 1161
3 1189 1161 1160
3 1190 1191 1162
3 1190 1162 1161
3 1191 1192 1163
3 1191 1163 1162
3 1192 1193 1164
3 1192 1164 1163
3 1193 1194 1165
3 1193 1165 1164
3 1194 1195 1166
3 1194 1166 1165
3 1195 1196 1167
3 1195 1167 1166
3 1196 1197 1168
3 1196 1168 1167
3 1197 1198 1169
3 1197 1169 1168
3 1198 1199 1170
3 1198 1170 1169
3 1199 1200 1171
3 1199 1171 1170
3 1200 1201 1172
3 1200 1172 1171
3 1201 1202 1173
3 1201 1173 1172
3 1202 1203 1174
3 1202 1174 1173
3 1203 1204 1175
3 1203 1175 1174
3 1204 1205 1176
3 1204 1176 1175
3 1205 1206 1177
3 1205 1177 1176
3 1206 1207 1178
3 1206 1178 1177
3 1207 1208 1179
3 1207 1179 1178
3 1208 1209 1180
3 1208 1180 1179
3 1209 1210 1181
3 1209 1181 1180
3 1210 1211 1182
3 1210 1182 1181
3 1211 1212 1183
3 1211 1183 1182
3 1212 1213 1184
3 1212 1184 1183
3 1213 1214 1185
3 1213 1185 1184
3 1214 1215 1186
3 1214 1186 1185
3 1215 1216 1187
3 1215 1187 1186
3 1216 1217 1188
3 1216 1188 1187
3 1218 1219 1190
3 1218 1190 1189
3 1219 1220 1191
3 1219 1191 1190
3 1220 1221 1192
3 1220 1192 1191
3 1221 1222 1193
3 1221 1193 1192
3 1222 1223 1194
3 1222 1194 1193
3 1223 1224 1195
3 1223 1195 1194
3 1224 1225 1196
3 1224 1196 1195
3 1225 1226 1197
3 1225 1197 1196
3 1226 1227 1198
3 1226 1198 1197
3 1227 1228 1199
3 1227 1199 1198
3 1228 1229 1200
3 1228 1200 1199
3 1229 1230 1201
3 1229 1201 1200
3 1230 1231 1202
3 1230 1202 1201
3 1231 1232 1203
3 1231 1203 1202
3 1232 1233 1204
3 1232 1204 1203
3 1233 1234 1205
3 1233 1205 1204
3 1234 1235 1206
3 1234 1206 1205
3 1235 1236 1207
3 1235 1207 1206
3 1236 1237 1208
3 1236 1208 1207
3 1237 1238 1209
3 1237 1209 1208
3 1238 1239 1210
3 1238 1210 1209
3 1239 1240 1211
3 1239 1211 1210
3 1240 1241 1212
3 1240 1212 1211
3 1241 1242 1213
3 1241 1213 1212
3 1242 1243 1214
3 1242 1214 1213
3 1243 1244 1215
3 1243 1215 1214
3 1244 1245 1216
3 1244 1216 1215
3 1245 1246 1217
3 1245 1217 1216
3 1247 1248 1219
3 1247 1219 1218
3 1248 1249 1220
3 1248 1220 1219
3 1249 1250 1221
3 1249 1221 1220
3 1250 1251 1222
3 1250 1222 1221
3 1251 1252 1223
3 1251 1223 1222
3 1252 1253 1224
3 1252 1224 1223
3 1253 1254 1225
3 1253 1225 1224
3 1254 1255 1226
3 1254 1226 1225
3 1255 1256 1227
3 1255 1227 1226
3 1256 1257 1228
3 1256 1228 1227
3 1257 1258 1229
3 1257 1229 1228
3 1258 1259 1230
3 1258 1230 1229
3 1259 1260 1231
3 1259 1231 1230
3 1260 1261 1232
3 1260 1232 1231
3 1261 1262 1233
3 1261 1233 1232
3 1262 1263 1234
3 1262 1234 1233
3 1263 1264 1235
3 1263 1235 1234
3 1264 1265 1236
3 1264 1236 1235
3 1265 1266 1237
3 1265 1237 1236
3 1266 1267 1238
3 1266 1238 1237
3 1267 1268 1239
3 1267 1239 1238
3 1268 1269 1240
3 1268 1240 1239
3 1269 1270 1241
3 1269 1241 1240
3 1270 1271 1242
3 1270 1242 1241
3 1271 1272 1243
3 1271 1243 1242
3 1272 1273 1244
3 1272 1244 1243
3 1273 1274 1245
3 1273 1245 1244
3 1274 1275 1246
3 1274 1246 1245
3 638 639 1
3 638 1 0
3 639 640 2
3 639 2 1
3 640 641 3
3 640 3 2
3 641 642 4
3 641 4 3
3 642 643 5
3 642 5 4
3 643 644 6
3 643 6 5
3 644 645 7
3 644 7 6
3 645 646 8
3 645 8 7
3 646 647 9
3 646 9 8
3 647 648 10
3 647 10 9
3 648 649 11
3 648 11 10
3 649 650 12
3 649 12 11
3 650 651 13
3 650 13 12
3 651 652 14
3 651 14 13
3 652 653 15
3 652 15 14
3 653 654 16
3 653 16 15
3 654 655 17
3 654 17 16
3 655 656 18
3 655 18 17
3 656 657 19
3 656 19 18
3 657 658 20
3 657 20 19
3 658 659 21
3 658 21 20
3 659 660 22
3 659 22 21
3 660 661 23
3 660 23 22
3 661 662 24
3 661 24 23
3 662 663 25
3 662 25 24
3 663 664 26
3 663 26 25
3 664 665 27
3 664 27 26
3 665 666 28
3 665 28 27
3 1248 1247 609
3 1248 609 610
3 1249 1248 610
3 1249 610 611
3 1250 1249 611
3 1250 611 612
3 1251 1250 612
3 1251 612 613
3 1252 1251 613
3 1252 613 614
3 1253 1252 614
3 1253 614 615
3 1254 1253 615
3 1254 615 616
3 1255 1254 616
3 1255 616 617
3 1256 1255 617
3 1256 617 618
3 1257 1256 618
3 1257 618 619
3 1258 1257 619
3 1258 619 620
3 1259 1258 620
3 1259 620 621
3 1260 1259 621
3 1260 621 622
3 1261 1260 622
3 1261 622 623
3 1262 1261 623
3 1262 623 624
3 1263 1262 624
3 1263 624 625
3 1264 1263 625
3 1264 625 626
3 1265 1264 626
3 1265 626 627
3 1266 1265 627
3 1266 627 628
3 1267 1266 628
3 1267 628 629
3 1268 1267 629
3 1268 629 630
3 1269 1268 630
3 1269 630 631
3 1270 1269 631
3 1270 631 632
3 1271 1270 632
3 1271 632 633
3 1272 1271 633
3 1272 633 634
3 1273 1272 634
3 1273 634 635
3 1274 1273 635
3 1274 635 636
3 1275 1274 636
3 1275 636 637
3 667 638 0
3 667 0 29
3 696 667 29
3 696 29 58
3 725 696 58
3 725 58 87
3 754 725 87
3 754 87 116
3 783 754 116
3 783 116 145
3 812 783 145
3 812 145 174
3 841 812 174
3 841 174 203
3 870 841 203
3 870 203 232
3 899 870 232
3 899 232 261
3 928 899 261
3 928 261 290
3 957 928 290
3 957 290 319
3 986 957 319
3 986 319 348
3 1015 986 348
3 1015 348 377
3 1044 1015 377
3 1044 377 406
3 1073 1044 406
3 1073 406 435
3 1102 1073 435
3 1102 435 464
3 1131 1102 464
3 1131 464 493
3 1160 1131 493
3 1160 493 522
3 1189 1160 522
3 1189 522 551
3 1218 1189 551
3 1218 551 580
3 1247 1218 580
3 1247 580 609
3 666 695 57
3 666 57 28
3 695 724 86
3 695 86 57
3 724 753 115
3 724 115 86
3 753 782 144
3 753 144 115
3 782 811 173
3 782 173 144
3 811 840 202
3 811 202 173
3 840 869 231
3 840 231 202
3 869 898 260
3 869 260 231
3 898 927 289
3 898 289 260
3 927 956 318
3 927 318 289
3 956 985 347
3 956 347 318
3 985 1014 376
3 985 376 347
3 1014 1043 405
3 1014 405 376
3 1043 1072 434
3 1043 434 405
3 1072 1101 463
3 1072 463 434
3 1101 1130 492
3 1101 492 463
3 1130 1159 521
3 1130 521 492
3 1159 1188 550
3 1159 550 521
3 1188 1217 579
3 1188 579 550
3 1217 1246 608
3 1217 608 579
3 1246 1275 637
3 1246 637 608
