ply
format ascii 1.0
element vertex 162
property float x
property float y
property float z
element face 320
property list uchar int vertex_indices
end_header
0.937701 0.115000 0.317002
0.937701 -0.095000 0.317002
0.657701 0.115000 0.317002
0.657701 -0.095000 0.317002
0.937701 0.010000 0.317002
0.797701 0.115000 0.317002
0.657701 0.010000 0.317002
0.797701 -0.095000 0.317002
0.797701 0.010000 0.317002
0.937701 0.062500 0.317002
0.937701 -0.042500 0.317002
0.727701 0.115000 0.317002
0.867701 0.115000 0.317002
0.657701 -0.042500 0.317002
0.657701 0.062500 0.317002
0.867701 -0.095000 0.317002
0.727701 -0.095000 0.317002
0.727701 0.062500 0.317002
0.727701 -0.042500 0.317002
0.727701 0.010000 0.317002
0.797701 0.062500 0.317002
0.867701 0.062500 0.317002
0.867701 0.010000 0.317002
0.797701 -0.042500 0.317002
0.867701 -0.042500 0.317002
0.937701 0.088750 0.317002
0.937701 0.036250 0.317002
0.937701 -0.016250 0.317002
0.937701 -0.068750 0.317002
0.692701 0.115000 0.317002
0.762701 0.115000 0.317002
0.832701 0.115000 0.317002
0.902701 0.115000 0.317002
0.657701 -0.068750 0.317002
0.657701 -0.016250 0.317002
0.657701 0.036250 0.317002
0.657701 0.088750 0.317002
0.902701 -0.095000 0.317002
0.832701 -0.095000 0.317002
0.762701 -0.095000 0.317002
0.692701 -0.095000 0.317002
0.692701 0.088750 0.317002
0.692701 0.036250 0.317002
0.692701 0.062500 0.317002
0.727701 0.088750 0.317002
0.762701 0.088750 0.317002
0.692701 -0.016250 0.317002
0.692701 0.010000 0.317002
0.692701 -0.068750 0.317002
0.692701 -0.042500 0.317002
0.727701 -0.016250 0.317002
0.762701 -0.016250 0.317002
0.762701 0.010000 0.317002
0.797701 0.088750 0.317002
0.832701 0.088750 0.317002
0.797701 0.036250 0.317002
0.832701 0.036250 0.317002
0.832701 0.062500 0.317002
0.867701 0.088750 0.317002
0.902701 0.088750 0.317002
0.727701 0.036250 0.317002
0.762701 0.036250 0.317002
0.762701 0.062500 0.317002
0.902701 0.062500 0.317002
0.832701 0.010000 0.317002
0.867701 0.036250 0.317002
0.902701 0.036250 0.317002
0.902701 0.010000 0.317002
0.762701 -0.042500 0.317002
0.797701 -0.016250 0.317002
0.727701 -0.068750 0.317002
0.762701 -0.068750 0.317002
0.797701 -0.068750 0.317002
0.902701 -0.016250 0.317002
0.902701 -0.042500 0.317002
0.832701 -0.068750 0.317002
0.867701 -0.068750 0.317002
0.902701 -0.068750 0.317002
0.832701 -0.016250 0.317002
0.832701 -0.042500 0.317002
0.867701 -0.016250 0.317002
0.937701 0.115000 0.312002
0.937701 -0.095000 0.312002
0.657701 0.115000 0.312002
0.657701 -0.095000 0.312002
0.937701 0.010000 0.312002
0.797701 0.115000 0.312002
0.657701 0.010000 0.312002
0.797701 -0.095000 0.312002
0.797701 0.010000 0.312002
0.937701 0.062500 0.312002
0.937701 -0.042500 0.312002
0.727701 0.115000 0.312002
0.867701 0.115000 0.312002
0.657701 -0.042500 0.312002
0.657701 0.062500 0.312002
0.867701 -0.095000 0.312002
0.727701 -0.095000 0.312002
0.727701 0.062500 0.312002
0.727701 -0.042500 0.312002
0.727701 0.010000 0.312002
0.797701 0.062500 0.312002
0.867701 0.062500 0.312002
0.867701 0.010000 0.312002
0.797701 -0.042500 0.312002
0.867701 -0.042500 0.312002
0.937701 0.088750 0.312002
0.937701 0.036250 0.312002
0.937701 -0.016250 0.312002
0.937701 -0.068750 0.312002
0.692701 0.115000 0.312002
0.762701 0.115000 0.312002
0.832701 0.115000 0.312002
0.902701 0.115000 0.312002
0.657701 -0.068750 0.312002
0.657701 -0.016250 0.312002
0.657701 0.036250 0.312002
0.657701 0.088750 0.312002
0.902701 -0.095000 0.312002
0.832701 -0.095000 0.312002
0.762701 -0.095000 0.312002
0.692701 -0.095000 0.312002
0.692701 0.088750 0.312002
0.692701 0.036250 0.312002
0.692701 0.062500 0.312002
0.727701 0.088750 0.312002
0.762701 0.088750 0.312002
0.692701 -0.016250 0.312002
0.692701 0.010000 0.312002
0.692701 -0.068750 0.312002
0.692701 -0.042500 0.312002
0.727701 -0.016250 0.312002
0.762701 -0.016250 0.312002
0.762701 0.010000 0.312002
0.797701 0.088750 0.312002
0.832701 0.088750 0.312002
0.797701 0.036250 0.312002
0.832701 0.036250 0.312002
0.832701 0.062500 0.312002
0.867701 0.088750 0.312002
0.902701 0.088750 0.312002
0.727701 0.036250 0.312002
0.762701 0.036250 0.312002
0.762701 0.062500 0.312002
0.902701 0.062500 0.312002
0.832701 0.010000 0.312002
0.867701 0.036250 0.312002
0.902701 0.036250 0.312002
0.902701 0.010000 0.312002
0.762701 -0.042500 0.312002
0.797701 -0.016250 0.312002
0.727701 -0.068750 0.312002
0.762701 -0.068750 0.312002
0.797701 -0.068750 0.312002
0.902701 -0.016250 0.312002
0.902701 -0.042500 0.312002
0.832701 -0.068750 0.312002
0.867701 -0.068750 0.312002
0.902701 -0.068750 0.312002
0.832701 -0.016250 0.312002
0.832701 -0.042500 0.312002
0.867701 -0.016250 0.312002
3 2 36 29
3 36 14 41
3 29 41 11
3 36 41 29
3 14 35 43
3 35 6 42
3 43 42 17
3 35 42 43
3 11 44 30
3 44 17 45
3 30 45 5
3 44 45 30
3 14 43 41
3 43 17 44
3 41 44 11
3 43 44 41
3 6 34 47
3 34 13 46
3 47 46 19
3 34 46 47
3 13 33 49
3 33 3 48
3 49 48 18
3 33 48 49
3 19 50 52
3 50 18 51
3 52 51 8
3 50 51 52
3 13 49 46
3 49 18 50
3 46 50 19
3 49 50 46
3 5 53 31
3 53 20 54
3 31 54 12
3 53 54 31
3 20 55 57
3 55 8 56
3 57 56 21
3 55 56 57
3 12 58 32
3 58 21 59
3 32 59 0
3 58 59 32
3 20 57 54
3 57 21 58
3 54 58 12
3 57 58 54
3 6 47 42
3 47 19 60
3 42 60 17
3 47 60 42
3 19 52 61
3 52 8 55
3 61 55 20
3 52 55 61
3 17 62 45
3 62 20 53
3 45 53 5
3 62 53 45
3 19 61 60
3 61 20 62
3 60 62 17
3 61 62 60
3 0 59 25
3 59 21 63
3 25 63 9
3 59 63 25
3 21 56 65
3 56 8 64
3 65 64 22
3 56 64 65
3 9 66 26
3 66 22 67
3 26 67 4
3 66 67 26
3 21 65 63
3 65 22 66
3 63 66 9
3 65 66 63
3 8 51 69
3 51 18 68
3 69 68 23
3 51 68 69
3 18 48 70
3 48 3 40
3 70 40 16
3 48 40 70
3 23 71 72
3 71 16 39
3 72 39 7
3 71 39 72
3 18 70 68
3 70 16 71
3 68 71 23
3 70 71 68
3 4 73 27
3 73 24 74
3 27 74 10
3 73 74 27
3 24 75 76
3 75 7 38
3 76 38 15
3 75 38 76
3 10 77 28
3 77 15 37
3 28 37 1
3 77 37 28
3 24 76 74
3 76 15 77
3 74 77 10
3 76 77 74
3 8 69 64
3 69 23 78
3 64 78 22
3 69 78 64
3 23 72 79
3 72 7 75
3 79 75 24
3 72 75 79
3 22 80 67
3 80 24 73
3 67 73 4
3 80 73 67
3 23 79 78
3 79 24 80
3 78 80 22
3 79 80 78
3 110 117 83
3 122 95 117
3 92 122 110
3 110 122 117
3 124 116 95
3 123 87 116
3 98 123 124
3 124 123 116
3 111 125 92
3 126 98 125
3 86 126 111
3 111 126 125
3 122 124 95
3 125 98 124
3 92 125 122
3 122 125 124
3 128 115 87
3 127 94 115
3 100 127 128
3 128 127 115
3 130 114 94
3 129 84 114
3 99 129 130
3 130 129 114
3 133 131 100
3 132 99 131
3 89 132 133
3 133 132 131
3 127 130 94
3 131 99 130
3 100 131 127
3 127 131 130
3 112 134 86
3 135 101 134
3 93 135 112
3 112 135 134
3 138 136 101
3 137 89 136
3 102 137 138
3 138 137 136
3 113 139 93
3 140 102 139
3 81 140 113
3 113 140 139
3 135 138 101
3 139 102 138
3 93 139 135
3 135 139 138
3 123 128 87
3 141 100 128
3 98 141 123
3 123 141 128
3 142 133 100
3 136 89 133
3 101 136 142
3 142 136 133
3 126 143 98
3 134 101 143
3 86 134 126
3 126 134 143
3 141 142 100
3 143 101 142
3 98 143 141
3 141 143 142
3 106 140 81
3 144 102 140
3 90 144 106
3 106 144 140
3 146 137 102
3 145 89 137
3 103 145 146
3 146 145 137
3 107 147 90
3 148 103 147
3 85 148 107
3 107 148 147
3 144 146 102
3 147 103 146
3 90 147 144
3 144 147 146
3 150 132 89
3 149 99 132
3 104 149 150
3 150 149 132
3 151 129 99
3 121 84 129
3 97 121 151
3 151 121 129
3 153 152 104
3 120 97 152
3 88 120 153
3 153 120 152
3 149 151 99
3 152 97 151
3 104 152 149
3 149 152 151
3 108 154 85
3 155 105 154
3 91 155 108
3 108 155 154
3 157 156 105
3 119 88 156
3 96 119 157
3 157 119 156
3 109 158 91
3 118 96 158
3 82 118 109
3 109 118 158
3 155 157 105
3 158 96 157
3 91 158 155
3 155 158 157
3 145 150 89
3 159 104 150
3 103 159 145
3 145 159 150
3 160 153 104
3 156 88 153
3 105 156 160
3 160 156 153
3 148 161 103
3 154 105 161
3 85 154 148
3 148 154 161
3 159 160 104
3 161 105 160
3 103 161 159
3 159 161 160
3 83 117 36
3 83 36 2
3 2 29 110
3 2 110 83
3 14 36 117
3 14 117 95
3 92 110 29
3 92 29 11
3 95 116 35
3 95 35 14
3 6 35 116
3 6 116 87
3 11 30 111
3 11 111 92
3 86 111 30
3 86 30 5
3 87 115 34
3 87 34 6
3 13 34 115
3 13 115 94
3 94 114 33
3 94 33 13
3 3 33 114
3 3 114 84
3 5 31 112
3 5 112 86
3 93 112 31
3 93 31 12
3 12 32 113
3 12 113 93
3 81 113 32
3 81 32 0
3 0 25 106
3 0 106 81
3 90 106 25
3 90 25 9
3 9 26 107
3 9 107 90
3 85 107 26
3 85 26 4
3 84 121 40
3 84 40 3
3 16 40 121
3 16 121 97
3 97 120 39
3 97 39 16
3 7 39 120
3 7 120 88
3 4 27 108
3 4 108 85
3 91 108 27
3 91 27 10
3 88 119 38
3 88 38 7
3 15 38 119
3 15 119 96
3 10 28 109
3 10 109 91
3 96 118 37
3 96 37 15
3 1 37 118
3 1 118 82
3 82 109 28
3 82 28 1
